/* XPM */
static char *_685cf1641904679b3e96c048a5346b1tsrgxgRdzA6xwZHJ[] = {
/* columns rows colors chars-per-pixel */
"64 64 210 2 ",
"   c #300306",
".  c #4C1A1C",
"X  c #51181E",
"o  c #4B241D",
"O  c #4C1E21",
"+  c #541E21",
"@  c #591C21",
"#  c #4B2224",
"$  c #482826",
"%  c #532425",
"&  c #532C2B",
"*  c #5C2B2C",
"=  c #562628",
"-  c #4F312F",
";  c #52332C",
":  c #5B342D",
">  c #4F2A31",
",  c #4F3631",
"<  c #5F3135",
"1  c #5A3838",
"2  c #542C35",
"3  c #60302E",
"4  c #652C32",
"5  c #63343A",
"6  c #6A3B3E",
"7  c #653336",
"8  c #70393E",
"9  c #5E433C",
"0  c #733C42",
"q  c #734145",
"w  c #734649",
"e  c #7B434C",
"r  c #764B4D",
"t  c #784A4C",
"y  c #7D4A51",
"u  c #6F5151",
"i  c #7F6763",
"p  c #80484B",
"a  c #884D53",
"s  c #825155",
"d  c #8B5657",
"f  c #955D5E",
"g  c #87665F",
"h  c #91615F",
"j  c #8E5B66",
"k  c #945D63",
"l  c #915F6A",
"z  c #8F616B",
"x  c #9B6A6E",
"c  c #96676A",
"v  c #996972",
"b  c #9D7174",
"n  c #967476",
"m  c #A16B74",
"M  c #A5767B",
"N  c #AC7C84",
"B  c #AB7783",
"V  c #B17D85",
"C  c #B57F8C",
"Z  c #A7888C",
"A  c #B88187",
"S  c #B3838B",
"D  c #B5878A",
"F  c #A6938C",
"G  c #B78B92",
"H  c #BB8C95",
"J  c #BA8F98",
"K  c #BA9493",
"L  c #BD929A",
"P  c #B8949A",
"I  c #BE9BA2",
"U  c #BF97A0",
"Y  c #BCA7A2",
"T  c #C18C95",
"R  c #C28C99",
"E  c #C38793",
"W  c #C5959C",
"Q  c #CA939C",
"!  c #C09295",
"~  c #D0999F",
"^  c #CB95A1",
"/  c #C39BA1",
"(  c #CD9BA5",
")  c #CE9EA9",
"_  c #D197A4",
"`  c #D29CA5",
"'  c #D39DA9",
"]  c #D99EAB",
"[  c #CBA3AB",
"{  c #C6A3AA",
"}  c #D4A2AC",
"|  c #DBA3AE",
" . c #D8A9AD",
".. c #CDACB3",
"X. c #D6A6B1",
"o. c #DBA6B1",
"O. c #D5ABB3",
"+. c #DCABB4",
"@. c #DEAEB9",
"#. c #CCBCB7",
"$. c #C6BFB7",
"%. c #D5B6BC",
"&. c #DDB2BC",
"*. c #DCBABD",
"=. c #D5BABF",
"-. c #E3ACB6",
";. c #E3ADBA",
":. c #E9AEBB",
">. c #E3B3BC",
",. c #EBB4BD",
"<. c #E4BABD",
"1. c #EDBABF",
"2. c #E7B0B6",
"3. c #D6C6BF",
"4. c #DDBBC3",
"5. c #D6BBC0",
"6. c #EEAFC0",
"7. c #E4B6C1",
"8. c #EBB5C2",
"9. c #E6BCC4",
"0. c #EBBBC5",
"q. c #E7BFCA",
"w. c #ECBEC9",
"e. c #F3B6C4",
"r. c #F2BBC4",
"t. c #F3BDC9",
"y. c #FABECB",
"u. c #CFCAC4",
"i. c #D4C4C3",
"p. c #DDC2C4",
"a. c #DDC5C9",
"s. c #DACCC6",
"d. c #DBCAD0",
"f. c #DED9D5",
"g. c #E2C0C7",
"h. c #EBC2C6",
"j. c #E5CCC7",
"k. c #E4C3CA",
"l. c #ECC3CC",
"z. c #E7CACE",
"x. c #ECC9CF",
"c. c #F4C1C6",
"v. c #F3C3CD",
"b. c #F9C3CE",
"n. c #F3C9CD",
"m. c #FDCBCC",
"M. c #E9D4CD",
"N. c #EDC5D0",
"B. c #E6CCD2",
"V. c #ECCCD3",
"C. c #E3C5D1",
"Z. c #F3C6D1",
"A. c #FBC5D1",
"S. c #F3CBD4",
"D. c #FBCBD4",
"F. c #F7CFD8",
"G. c #FECED9",
"H. c #E4D2D4",
"J. c #ECD1D6",
"K. c #E5D6D9",
"L. c #EDD5DA",
"P. c #E5DCDB",
"I. c #EDDADD",
"U. c #EDDED7",
"Y. c #F2D0D7",
"T. c #FCD2D5",
"R. c #F4D4DB",
"E. c #FDD3DC",
"W. c #F2D9DD",
"Q. c #FAD8DE",
"!. c #ECE1DE",
"~. c #E6E2DF",
"^. c #F4E1DD",
"/. c #EFDDE1",
"(. c #FED6E1",
"). c #F5DCE2",
"_. c #FDDBE3",
"`. c #FFDEE8",
"'. c #E6E4E4",
"]. c #EDE4E4",
"[. c #E5EAE6",
"{. c #ECE9E6",
"}. c #EBE7E8",
"|. c #E5ECEC",
" X c #EDEDEC",
".X c #F4E3E5",
"XX c #FBE1E6",
"oX c #FDE9E5",
"OX c #F5E5E9",
"+X c #FDE5EA",
"@X c #F3EDED",
"#X c #FCEBED",
"$X c #F1EAE4",
"%X c #EDF0EE",
"&X c #F2F1EE",
"*X c #FCF1ED",
"=X c #E5EFF0",
"-X c #EEEEF0",
";X c #F2EEF0",
":X c #FDEEF1",
">X c #EEF2F1",
",X c #E7F1F2",
"<X c #F3F3F3",
"1X c #FCF3F4",
"2X c #F5F8F7",
"3X c #FCF9F6",
"4X c #F6F6F8",
"5X c #FDF6F9",
"6X c #F6FAF9",
"7X c #FDFDFD",
/* pixels */
"7X7X7X7X7X@X X X X<X7X7X7X7X6X<X;X}.OX4X7X7X7X7X6X X X X}.<X7X7X7X7X<X X;X@X X5X7X7X7X7X4X X|. X|.6X7X7X7X7X4X}.@X X X4X7X7X7X7X",
"7X7X7X7X6X;X X X X<X7X7X7X7X4X<X;X}. X<X7X7X7X7X6X X X<X@X4X7X7X7X7X4X@X<X@X@X4X7X7X7X7X4X X X%X%X6X7X7X7X7X1X@X@X X;X7X7X7X7X7X",
"7X7X7X7X7X<X X X X>X5X7X7X7X<X<X@X X X1X7X7X7X7X6X X%X;X;X4X7X7X7X7X<X X X X X<X7X7X7X7X<X X X X>X2X7X7X7X7X<X@X X@X;X4X7X7X7X7X",
"7X7X7X7X6X<X X X X<X7X7X7X7X4X X X X@X<X7X7X7X7X<X>X X[. X<X7X7X7X7X4X X X X<X4X7X7X7X6X<X%X X%X|.2X7X7X7X7X<X}.@X X;X4X7X7X7X7X",
"7X6X4X2X4X4X<X<X<X<X6X7X7X6X<X<X&X<X<X1X6X6X6X6X<X<X<X%X<X<X4X7X7X2X<X<X-X<X<X6X6X6X6X2X>X2X<X<X>X2X6X7X7X4X<X;X;X<X1X4X6X7X6X6X",
";X<X<X<X<X7X7X7X7X<X<X;X<X<X4X7X7X7X7X4X<X<X<X%X2X7X7X7X7X4X@X<X@X@X4X7X7X6X7X<X>X>X2X<X2X6X7X6X7X6X;X;X;X<X4X7X7X7X4X<X<X<X<X<X",
" X%X X X<X7X7X7X7X6X X[.}.}.4X7X7X7X7X2X&X&X%X X>X7X7X7X7X1X@X@X@X{.3X7X7X7X7X<X%X%X%X%X6X7X7X7X7X<X X X X X4X7X7X7X7X<X X X X X",
" X X|.[.&X6X7X7X7X6X;X X X@X<X7X7X7X7X2X&X&X@X X<X7X7X3X7X1XOX1X1X@X1X7X3X7X7X4X&X%X{.%X2X7X7X7X5X<X X X@X;X<X7X7X7X6X X|. X%X X",
"|.>X X%X<X7X7X7X7X6X@X}. X<X7X7X1X7X7X1X@X@X<X@X@X7X7X1X#X1X:XOX1X.X:XOX5X4X7X1X@X{. X@X7X7X3X7X7X<X}. X}.<X5X7X7X7X7X;X[. X;X X",
">X>X<X>X<X6X7X6X7X7X4X<X;X<X5X5X7X:X5X1X1X1X1X#X1X7X7XOX/.OX+X.XB.B./.).#X:X7X7X7X1X3X1X1X7X1X1X5X1X1X:X1X1X4X7X6X7X4X<X<X<X<X<X",
"7X7X7X6X6X<X;X-X@X<X7X7X7X5X7X7X1XH.#X1X#X7X1X7X#X1X#XI.K.W.).Y.Y.W.).+XI..X:X:X#X$X1X1X@X1X#XOX1X7X7X7X7X7X;X<X;X@X>X<X7X7X7X7X",
"7X6X7X7X7X%X[. X'.-X7X7X7X7X7X5XOXi.I..XI.1X1X1X.XXX.XW.R.R.V.C.l.l.l.Y.k.L.`.:X.XH.XX+XW.XXXXL.OX7X5X5X7X7X[.;X X[. X7X7X7X7X7X",
"6X6X7X7X7X>X>X>X X<X7X7X7X5X1X1XXXk.L.B.a.).#XXXXXXXXX_.).F.V.q.l.t.q.w.4.R.`.:X+XR.XXXXV.R.R.B.).5X:X1X7X7X@X-X<X X<X7X7X7X7X7X",
"7X6X6X7X6X>X X%X;X<X5X7X7X7X5X1X#X).L.k.=.z.).B.XXQ.R.R.(.E.G.G.`.G.A.t.7.w.Y.(.+XR.).S.l.S.F.V.+X5X5X5X7X7X;X-X X X>X6X7X7X7X7X",
"7X6X6X2X<X>X<X-X<X;X1X<X5X1X1X:X:X_.k.x.k.a.R.p.R.V.h.w.w.Z.Z.A.A.t.t.0.7.7.Z.S.Y.x.S.V.x.S.Z.S.`.:X5X5X1X4X<X<X%X>X<X<X<X7X7X7X",
"|.%X,X|.>X7X7X7X7X7X;X;X1X;X}.K.).).%.B.Y.g.Q.l.F.l.&.&.4.@.@.+.y.e.y.t.t.q.Z.Z.w.l.F.Z.D.F.w.Z.q.R.:X:XOX<X7X7X7X7X7X<X>X;X;X X",
">X X X X<X7X7X7X7X7X3X*X].P.H.H.L.).J.).F.(.N.7.w.(.7.;.0.' D.w.G.@.G.D.A.8.8.t.' A.D.w.w.t.t.0.4.q.Y.L.1X#X7X7X7X7X7X@X X<X>X X",
";X;X;X[.>X5X7X7X7X7X1X*X$X$X.X.X7X).V./.N.Z.G.Z.G.y.R o.E.) ^ Z.Z.4.q.Z.`.w._ | 6.6.6.6.e.8.t.D.8.q.Z.V.#X*X7X7X7X7X7X<X X X X|.",
" X}.@X X<X6X7X7X7X7X3X1X:X1X#X:X).L.).(.F.7.7.t.+.y.-.o.y.8.( t.l.9.V.S.Z.o.] t.y.6.e.t.A.@.7.} t.t.R./.#X1X7X7X7X7X7X<X%X%X|.|.",
"<X<X<X<X2X6X6X6X2X7X3X3X#X#X#X1XR.).(.V.`.7.X.(.R ] t.;.o.8.} +.Q.O.9.Z.@.6.G.A.t.| e.;.w.8.t.8.F.S._.F..X@X7X3X3X3X<X<X<X2X4X<X",
"7X7X7X7X6X<X%X[.&X4X3X*X.X.X+X#XXX4.q.l.(.w.X.;.A._ :.y.y.r.' | &.O.w.D.4.t.G.6.o._ t.;.t.w.G.D.Z.S._.J.K.P.3X2X<X&X<X4X6X7X7X7X",
"7X7X7X7X7X<X%X X1X7X3X#XI.I.XX:XY.I 5.S.q.w.7.' y.:.o._ :.:.' C / Z.Q.E.t.t.t.t.] _ A.y.G.t.t.Z.F.t.(./.P.P.3X3X<X<X:X4X7X7X7X7X",
"7X7X7X7X6X<X%X&X3X3X3X#X.XL.L.R.).&.l.q.+.Z.t.t.,.y.y.Q ` -.y.m >.(.v.Z.Z.t.6.7.;.@.y.6.w.A.t.E.G.w.).`..X~.6X2X<X&X<X7X7X7X7X7X",
"7X7X7X7X6X%X%X&X<X<X*X+X!.z.4.=.V.E.l.7.D.(.( ;.b.] :.:.] E A.j &.Z.Z.D.} } 7.6.] e.Z.7.8.(.8.7.(.q.).+XOX].3X%X<X&X<X7X7X7X7X7X",
"7X6X4X2X2X2X&X<X3X*X1X+XI.a.%.{ w.9.Z.q.;.G.(.} | 1.-.,.y.e.2.V +._.D.0.;.@.;.0.J | ^ 8.t.6.) ' v.F.k.XX^.#X3X@X&X<X1X4X1X4X6X6X",
" X-X&X<X4X7X7X7X1X1X3X#XR.B.5.O.9.Q._.E.Z.X.} r.E e.e.,.m.G.] p >.D.Z.@.' ' G.( C e.@.;.E.t.) o.t.8.k.+X#X@X1X2X7X7X7X4X<X&X@X X",
" X X X<X4X7X7X7X7X5X1X+XXX_.k.) :XE.Z.7.+.c.r.H o.2.y.] y.b.,.k t.E.G.7.^ +.G.R t.D.t.;.D.0.+.D.0.@.Z.XX:X#X@X7X7X7X7X1X;X X>X X",
"%X X X>X4X6X3X3X1X:XoXW.R.).q./ 9.l.7.0.Q.(.b.D.,.T r.| D.2.e.m ;.E.b.t.B ;.) ( `.8.G.D.t.w.0.w.8.7._.Y.XX*X:X1X3X7X1X<X@X X<X%X",
">X X<X<X2X6X7X7X@X:X#XW.R._.S.O.W S.Q.>.<.D.D.c.0.V Q +.r.1.2.e ;.(.t.`.B ;.+.D.D.;.D.7.0.A.t.X.e.6.(.S.W.+X#X;X7X7X7X1X<X;X&X X",
"6X<X6X6X7X6X3X1X1XOXI.V.Q.+X(.4.J b G h.D.G.G.<.T.D y ` 2.T.~ 0 +.t.@.t.l C Z.t.A.D.e.+.Z.t.7.6.y.6.t.Z.Y.I.OX1X1X7X5X5X4X6X6X<X",
"7X7X7X7X6X<X&X}.@XP.a.5.g.R.F.&.N.9./ D W &.h.n.m.+.0 _ c.T.A e A.8.8.^ j ( D.t.D.G.7.w.Z.7.@.w.y.e.8.Z.k.V.).@XOX;X5X7X7X7X7X7X",
"7X7X7X7X7X1X@X].#X+X.XB.%.9.V.D.l.t.Q.v.L H ( H 7.#XM V 1.1.A a y.;.Z.v l G.7.t.Z.G.+.' H ' t.y.e.y.6.w.&.V..XL./.+X:X7X7X7X7X7X",
"7X6X1X7X1X#XXXXXJ.W.XX+XQ.B.j.z.T.1.v.0.D.Z.) z 5 c v s m.c.c f G.t.H b E.G.(.9.O.P / ) +.8. .| +.-.0.b.0.[ ..S._.XX+X5X5X5X7X7X",
"7X7X7X7X:XL.J.V.S.XX1X*X#X).x.*.D. .0.<.X.H } v.9.G z = N 1Xs h T.c.< S +Xl.I ..E.k.S.F.G.Z.,.-.2.2.,.m.E.T.l.l.V.V./.+X5X5X7X7X",
"2X&X1X1X+XL.J.J.W.).W.J.R.XXXXE.>.[ +.&.l.x.E.Q.x._.+Xb   M x x XXA 5 K H V.%.V._.W.Y.E.v.0.v.t.r.c.0.0.v.n.x.Y.V.V./.OX5X5X4X1X",
"|.%X;X1X:XOX)..X*X1X*X#XXXQ.V.9. .h._.Z.D.+X_.9.x.(.P c n.t o b 1.w 7 ( F.+XF.:XV.Y.E.).D.>.1.-.Q ` >.D.G.x.x.XX).OX@X;X5X<X-X-X",
"%X%X@X&X:X:X#X#X.X.X+X+XR.=.{ W 9.T.T.h.&.x.N.Y.x.k./ 9.Q.T.w r ! o N K / { Z ..S.Y.N.E.v.9.G.A.( } +.v._._.).+X@X:X1X<X;X;X;X;X",
"&X X{.@X1X1X1X1X7X*X@XOXW.l.l.D.v.n.9.O.@.S.S.).x.L n.l.<.T.D o 5 6 M +._.x.p.G ..%.k.(.F.w.8.;.0.v.c.7.Y.+X:X*X:X5X4X<X-X}.-X-X",
";X@X@X@X4X7X3X3X3X3X*X1X+XF.S.D.c.Q.Q.w.@.V.h.V.7.%.Y.n.h.m.h.6 q % W E.7.*.Y.Y.C.4.q.w.@.X.X.o.| b._._.XX1X1X1X4X6X6X4X>X-X;X-X",
"4X2X5X4X1X3X2X2X%X<X1X*X+X+X(.E.E.E.l.0.9.S.9.E.E.l.E.h.Q.n. .t % q -.c.n.9.&.E.S.9.F.S.t.Z.t.G.0.G.`.+X+XoX@X1X2X6X2X2X4X5X7X<X",
"7X7X7X7X7X X X%X2X%X&X1X#XR.N.v.v.D.v.x.(.(.N.w.F.N.Z.A.E.-.~ q X p ,.1.v.<.>.S.S.w.S.F.N.t.D.w.E.(.(.`.OX.X}.&X%X[.,X2X7X7X7X7X",
"7X7X7X7X7X<X>X>X6X%X{.@X#XXXF.Z.c.D.c.w.Z.D.q.7.7.8.D.7.D.W ` 8 X a ,.2.c.D.v.w.7.7.Z.G.G.G.E.A.(.(.R.)..X@X<X>X>X%X2X6X7X7X7X5X",
"7X7X7X7X7X<X X X%X2X3X1XXXW.W.E.9.Z.Z.w.t.N.9.7.9.w.G.7.b.` | 8 @ a ,.2.r.m.v.v.w.w.(.`.(.(.(.F./.R.L./.OX1X1X-X%X|.>X6X7X7X7X7X",
"7X7X7X7X6X>X>X X[.2X7X3X@XI.).Q.N.x.k.k.q.q.q.q.S.Z.0.8.r.r.| 4 @ d 1.,.r.1.0.E.`.`.`.`.(.R.F.J.L././.OX;X7X4X X%X,X%X6X7X7X7X7X",
">X>X<X;X<X5X5X5X6X4X2X&X1X:XXXW.+XV.a.q.4.4.C.`.`.(.w.0.b.G.;.* @ f m.c.1.<.h.XX`.`.`.)./.R.L.I./.OXOX;X:X5X5X<X6X7X<X<X<X>X<X<X",
"=X-X=X-X<X5X7X7X7X6X%X%X@X1X1X#X1X).R.)./.C.).+X:X_.(.Z.E.A.Z.5 @ x m.<.1.n.Y.Y.J.`.OX).OXOXOXOX4X4X:X;X;X;X7X7X7X7X6X<X X%X X%X",
",X,X=X-X;X7X7X7X7X4X<X%X{.}.1X7X5X1X5X5X:X+X+X`._.W.Q.v.S.v.t.0 @ h m.2.j.T.^.R./.1X5X:X5X5X1X5X5X4X-X-X;X;X5X7X7X7X5X;X X X>X%X",
"=X>X-X-X1X7X7X7X7X<X X X@X X@X1X7X7X7X5XOX1X5X/.OX).L._.x._.N.u X d m.h.M.T.U.oX/.5X5X1X5X7X7X7X7X;X-X;X;X;X1X7X7X7X7X<X>X X>X|.",
"|.-X X X<X7X7X7X7X6X X X X@X<X7X7X7X7X3X<X&X<X1X7X@Xd.L.).Y.V.2 = 6 h.j.B.K.}.7X<X<X<X<X3X7X7X3X7X<X-X X@X X4X7X7X7X7X<X-X<X X[.",
"7X7X5X4X<X<X<X X<X<X7X7X7X6X<X<X&X&X<X3X6X6X7X7X7X}.}.L./.`.q.2 # 3 n.W.!.'.<X7X7X7X6X1X2X&X&X&X;X;X6X7X7X7X<X<X X<X<X<X4X7X7X7X",
"7X7X7X7X4X<X[. X X4X7X7X7X7X6X<X%X{. X<X3X7X7X7X7X#X5X#X:X5Xa.> * 3 T.oX#X@X2X7X7X7X7X7X<X@X X$X&X4X7X7X7X7X<X-X X[.;X6X7X7X7X7X",
"7X7X7X7X7X<X;X<X X<X7X6X7X7X6X<X&X@X%X<X7X7X7X7X<X1X@X:X:X5X%.o < 3 T.*X+X@X2X6X7X7X7X7X<X&X X%X<X6X7X7X6X7X6X X<X X;X7X7X7X7X7X",
"7X7X7X7X7X<X[.;X'.<X7X7X7X7X6X X X[.}.<X7X7X7X3X1X#X^..XXX7XZ $ : = <.*XoX$X&X2X7X7X7X7X<X X{.{.}.2X7X7X7X7X<X'.;X[. X7X7X7X7X7X",
"7X7X7X6X<X<X@X<X X<X7X7X7X7X4X<X<X X&X<X3X7X3X3X7X$X*X#X+X1Xu & * % K *X*X*X&X3X7X7X7X6X<X@X X%X<X2X6X7X7X7X<X<X<X X<X4X7X7X7X7X",
"<X<X<X@X<X6X7X6X7X6X<X-X&X<X4X7X7X7X2X2X<X&X&X&X*X*X3X*X3X3.; & 3 o g ^.3X*X1X3X;X<X;X1X<X2X6X6X7X<X<X<X<X<X6X7X6X7X<X<X<X<X<X<X",
" X-X X|.-X7X7X7X7X<X X X X}.<X7X7X7X7X6X&X&X*X&X$X3X!.^.*Xn $ & : o 9 M.oX*X&X1X@X@X;X<X6X7X7X7X7X<X}. X X X4X7X7X7X7X-X[. X<X X",
" X X X X<X7X7X7X7X6X<X X[. X;X5X7X7X6X;X X{.~.f.s.3.3.#.Y g , , : ; 9 F 3.3.3.f.~.{.@X<X4X7X7X6X6X<X X X}.<X6X7X7X7X6X@X X X X X",
" X X X[.>X7X7X7X7X6X;X[. X X6X7X7X7X7X6X&X@X{.!.{.!.P.^.^.M.3.j.3.j.3.^.*X$X[.f.].}.;X;X6X7X7X7X7X<X X[. X;X6X7X7X7X7X<X X X X X",
"-X;X@X<X<X6X7X6X7X6X<X@X;X<X4X7X6X7X6X3X<X&X*X&X3X3X3X*X3X3X1X*X^.3X*X*X3X3X3X2X@X@X;X1X5X7X7X6X7X4X<X<X<X<X4X7X7X7X6X<X;X<X<X-X",
"5X5X3X7X4X4X<X<X<X<X4X7X7X6X<X<X&X&X<X2X2X7X7X3X@X3X*X*X*X3X*X*X3X3X*X&X&X&X&X6X7X5X7X7X<X<X>X>X<X4X6X7X7X<X<X;X<X<X<X4X6X7X7X6X",
"7X7X7X7X7X<X X X[.<X7X7X7X7X6X@X%X{. X<X7X7X7X7X3X@X{.{.@X1X7X7X7X7X<X>X&X[.~.2X7X7X7X7X<X%X|.|. X<X7X7X7X7X<X X X@X<X6X7X7X7X7X",
"7X7X7X7X4X<X X}. X<X7X7X7X7X4X<X<X{.{.<X7X7X7X7X7X X{. X[.>X7X7X7X6X4X|.%X2X,X2X7X7X7X7X<X%X%X%X<X<X7X7X7X7X<X[. X}.;X6X7X7X7X7X",
"7X7X7X7X6X;X X X-X<X7X7X7X7X6X<X&X X{.2X7X7X7X7X<X[.%X2X<X6X7X7X7X7X6X=X,X6X%X2X7X7X7X7X4X&X,X%X<X6X7X7X7X7X<X-X X X@X6X7X7X7X7X",
"7X7X7X7X6X<X X;X X<X7X7X7X7X4X X X{. X<X7X7X7X7X6X&X%X&X|.2X7X6X7X6X6X=X=X,X|.6X7X7X7X7X4X%X X%X X6X7X7X7X7X<X[. X X>X7X7X7X7X7X"
};
