/* XPM */
static char *e7383109682c4d90afebdf71ebea152bwc3HuDFdNn56Fx18[] = {
/* columns rows colors chars-per-pixel */
"64 64 135 2 ",
"   c #8C1F37",
".  c #8D1F39",
"X  c #941F37",
"o  c #981F37",
"O  c #941F39",
"+  c #991F39",
"@  c #8E223A",
"#  c #902037",
"$  c #95213A",
"%  c #9A213A",
"&  c #A1223B",
"*  c #8F2640",
"=  c #8D2C43",
"-  c #952641",
";  c #992641",
":  c #942A44",
">  c #9A2B45",
",  c #952E4A",
"<  c #9A2E49",
"1  c #96334C",
"2  c #9B344D",
"3  c #8D3D53",
"4  c #9B3550",
"5  c #953C54",
"6  c #9C3B55",
"7  c #A2314C",
"8  c #A33752",
"9  c #A23B55",
"0  c #984057",
"q  c #944358",
"w  c #9D445C",
"e  c #A2455D",
"r  c #AA445E",
"t  c #A4495F",
"y  c #9F4B62",
"u  c #9F5269",
"i  c #A34A62",
"p  c #AA4D65",
"a  c #A94F69",
"s  c #A35166",
"d  c #A55269",
"f  c #AB546B",
"g  c #B1546C",
"h  c #AC5A72",
"j  c #B15D75",
"k  c #A46375",
"l  c #AD6377",
"z  c #AE6279",
"x  c #A06C7D",
"c  c #B3647B",
"v  c #BA657C",
"b  c #B36A7F",
"n  c #B56C82",
"m  c #BA6E84",
"M  c #BB7186",
"N  c #B57088",
"B  c #BA748A",
"V  c #B2788B",
"C  c #BD7B8F",
"Z  c #BF7E92",
"A  c #C17A8F",
"S  c #C47E93",
"D  c #BE8195",
"F  c #BF8C9B",
"G  c #BE97A4",
"H  c #C38396",
"J  c #C5859A",
"K  c #CA879A",
"L  c #C58B9E",
"P  c #CB8A9D",
"I  c #C58EA0",
"U  c #C98FA4",
"Y  c #CB92A5",
"T  c #CD97AB",
"R  c #CE9AAA",
"E  c #D195A7",
"W  c #D197A9",
"Q  c #D39CAD",
"!  c #D69FB1",
"~  c #CAA3AF",
"^  c #CEA2B1",
"/  c #D3A5B4",
"(  c #D2A8B6",
")  c #DBA6B9",
"_  c #D6ACBA",
"`  c #DAADBC",
"'  c #D4B3BE",
"]  c #DAB2BF",
"[  c #DCB4C2",
"{  c #DCB9C5",
"}  c #DFBDCB",
"|  c #E2B4C5",
" . c #E2BCCA",
".. c #E3C3CD",
"X. c #E5C4D1",
"o. c #E9C6D3",
"O. c #E6CAD4",
"+. c #E9CBD5",
"@. c #ECCDDA",
"#. c #E6D4DC",
"$. c #ECD2DC",
"%. c #ECD8DE",
"&. c #EED5E1",
"*. c #EEDDE4",
"=. c #F0D7E2",
"-. c #F1DBE4",
";. c #F4DDE9",
":. c #F2E0E6",
">. c #F4E3EB",
",. c #F8E7EE",
"<. c #F6EAEE",
"1. c #F7EAF1",
"2. c #F9EDF3",
"3. c #F6F3F5",
"4. c #F9F2F5",
"5. c #F9F5F7",
"6. c #FDF2F9",
"7. c #FAF5F9",
"8. c #FBF7FB",
"9. c #FDF5FA",
"0. c #FCF7FA",
"q. c #FEF7FD",
"w. c #F7FDFB",
"e. c #F6FEFC",
"r. c #F7FEFC",
"t. c #FAF9F9",
"y. c #F8FBF9",
"u. c #FEF9FB",
"i. c #FCFCFB",
"p. c #F8FBFD",
"a. c #FAFAFC",
"s. c #FBFAFC",
"d. c #FDFBFE",
"f. c #FBFDFE",
"g. c white",
/* pixels */
"g.g.g.g.g.g.g.g.g.g.g.g.g.g.g.g.g.g.g.g.g.g.g.g.g.g.g.g.g.g.g.g.g.g.g.g.g.g.g.g.g.g.g.g.g.g.g.g.g.g.g.g.g.g.g.g.g.g.g.g.g.g.g.g.",
"g.g.g.g.g.g.g.g.g.g.g.g.g.g.g.g.g.g.g.g.g.g.g.g.g.g.g.g.g.g.g.g.g.g.g.g.g.g.g.g.g.g.g.g.g.g.g.g.g.g.g.g.g.g.g.g.g.g.g.g.g.g.g.g.",
"g.g.g.g.g.g.g.g.g.g.g.g.g.g.g.g.g.g.g.g.g.g.g.g.g.g.g.g.g.g.g.g.g.g.g.g.g.g.g.g.g.g.g.g.g.g.g.g.g.g.g.g.g.g.g.g.g.g.g.g.g.g.g.g.",
"g.g.g.g.g.g.g.g.g.g.g.g.g.g.g.g.g.g.g.g.g.g.g.g.g.g.g.g.g.g.g.g.g.g.g.g.g.g.g.g.g.g.g.g.g.g.g.g.g.g.g.g.g.g.g.g.g.g.g.g.g.g.g.g.",
"g.g.g.g.g.g.g.g.g.g.g.g.g.g.g.g.g.g.g.g.g.g.g.g.g.g.g.g.g.g.g.g.g.g.g.g.g.g.g.g.g.g.g.g.g.g.g.g.g.g.g.g.g.g.g.g.g.g.g.g.g.g.g.g.",
"g.g.g.g.g.g.g.g.g.g.g.g.g.g.g.g.g.g.g.g.g.g.g.g.g.g.d.g.g.g.g.g.g.g.f.g.5.d.g.g.g.f.g.g.g.g.g.g.g.g.g.g.g.g.g.g.g.g.g.g.g.g.g.g.",
"g.g.g.g.g.g.g.g.g.g.g.g.g.g.g.g.g.g.g.g.g.g.g.g.g.g.g.g.g.g.g.g.u.s.w.>.C ^ 3.g.f.f.f.d.g.g.g.g.g.g.g.g.g.g.g.g.g.g.g.g.g.g.g.g.",
"g.g.g.g.g.g.g.g.g.g.g.g.g.g.g.g.g.g.g.g.g.g.g.g.g.g.g.g.g.d.d.g.i.i.*.n $ 1 R 3.s.g.r.f.g.s.g.g.g.g.g.g.g.g.g.g.g.g.g.g.g.g.g.g.",
"g.g.g.g.g.g.g.g.g.g.g.g.g.g.g.g.g.g.g.g.g.g.g.g.g.g.g.g.d.g.g.g.f.*.b % % % 1 Q 6.f.f.g.g.g.g.g.g.g.g.g.g.g.g.g.g.g.g.g.g.g.g.g.",
"g.g.g.g.g.g.g.g.g.g.g.g.g.g.g.g.g.g.g.g.g.g.g.g.g.g.g.d.g.r.s.g.*.c $ & % $ O < T 2.s.g.f.f.g.g.g.g.g.g.g.g.g.g.g.g.g.g.g.g.g.g.",
"g.g.g.g.g.g.g.g.g.g.g.g.g.g.g.g.g.g.g.g.g.g.g.g.g.g.g.g.f.r.d.=.c $ $ % $ $ O O , T 7.r.f.g.g.g.g.g.g.g.g.g.g.g.g.g.g.g.g.g.g.g.",
"g.g.g.g.g.g.g.g.g.g.g.g.g.g.g.g.g.g.g.g.g.g.g.g.g.f.g.g.f.g.&.c $ % % $ % % % & @ V 7.f.g.g.g.g.g.g.g.g.g.g.g.g.g.g.g.g.g.g.g.g.",
"g.g.g.g.g.g.g.g.g.g.g.g.g.g.g.g.g.g.g.d.g.g.g.g.g.f.g.g.g.&.c - # % & % $ $ + ; n *.d.g.g.g.g.g.g.g.f.f.g.g.g.g.g.g.g.g.g.g.g.g.",
"g.g.g.g.g.g.g.g.g.g.g.g.g.g.g.g.g.g.g.g.f.g.g.g.g.s.a.w.*.h $ $ % $ $ % % $ @ n ;.f.s.f.u.s.f.g.d.g.g.g.g.g.g.g.g.g.g.g.g.g.g.g.",
"g.g.g.g.g.g.g.g.g.g.g.g.g.g.g.g.g.g.g.g.g.g.g.d.g.i.f.%.c % $ $ % # $ % & $ n *.7.s.s.6._ ~ 3.i.f.f.d.d.f.f.g.g.g.g.g.g.g.g.g.g.",
"g.g.g.g.g.g.g.g.g.g.g.g.g.g.g.g.g.g.f.g.g.g.g.g.g.g.%.l % % $ $ $ % % % $ N >.g.f.g.8./ 1 : Y 4.f.f.g.d.g.g.g.g.g.g.g.g.g.g.g.g.",
"g.g.g.g.g.g.g.g.g.g.g.g.g.g.g.g.g.g.g.g.g.g.w.r.d.$.h % $ $ $ % + + + - n >.s.f.i.s.) 2 O O < U 4.f.r.g.d.g.g.g.g.g.g.g.g.g.g.g.",
"g.g.g.g.g.g.g.g.g.g.g.g.g.g.g.g.g.g.g.g.d.g.r.s.=.h $ $ $ $ % % % O - N >.f.w.i.a.( 2 X O O O < L 2.f.g.d.g.g.g.g.g.g.g.g.g.g.g.",
"g.g.g.g.g.g.g.g.g.g.g.g.g.g.g.g.g.g.g.g.g.g.d.@.h $ % $ $ % % % % * N >.f.r.i.6./ 2 O % % $ $ % : I 4.f.g.g.g.g.g.g.g.g.g.g.g.g.",
"g.g.g.g.g.g.g.g.g.g.g.g.g.g.f.g.g.g.f.g.f.d.@.h $ % % % % % % % - M ;.d.r.r.7.! 2 # % % % % $ $ O y -.f.s.g.f.g.d.g.f.g.g.g.g.g.",
"g.g.g.g.g.g.g.g.g.g.g.g.g.g.g.g.d.g.g.g.f.4.n $ $ $ % $ % % # $ B >.q.s.i.a.! 7 X % % $ $ $ $ % 6 ) s.g.s.f.g.g.g.g.f.f.g.g.g.g.",
"g.g.g.g.g.g.g.g.g.g.g.g.f.g.d.g.d.g.g.s.g.s./ 2 % $ $ $ % $ $ B >.s.r.r.4.! 7 + % % $ $ $ $ O 8 ) s.i.g.g.f.g.f.s.d.g.f.g.g.g.g.",
"g.g.g.g.g.g.g.g.g.g.g.g.g.g.g.g.f.g.g.g.i.i.5.^ 4 & % % $ : B >.d.f.r.7.Q 2 @ $ % % % % % X 6 ] 6.u.i.r.>. .1.f.f.g.f.g.g.g.g.g.",
"g.g.g.g.g.g.g.g.g.g.g.g.g.d.f.w.f.d.-.%.i.u.s.s.( 4 % % ; C <.w.s.g.7.Q 7 $   $ $ $ % & X 6 ` s.f.g.r.>.M , H 2.f.f.f.g.g.g.g.g.",
"g.g.g.g.g.g.g.g.g.g.g.g.g.g.f.f.d.+.f y ..u.i.s.6.( 5 - C <.w.s.f.4.Q < + % % % % $ % $ 5 ` 6.g.i.f.<.M % - : S 1.f.f.g.g.g.g.g.",
"g.g.g.g.g.g.g.g.g.g.g.f.g.g.g.g.O.a $ $ i  .f.d.f.7._ G >.g.f.d.4.W <   $ & $ $ $ $ X 6 ] s.g.g.g.;.m % O $ % : H 1.f.g.g.g.g.g.",
"g.g.g.g.g.g.g.f.g.g.g.f.i.i.f.O.a - $ % O i  .9.f.s.s.f.d.f.g.6.E < O $ % % % $ % X 6 [ u.f.i.i.:.n ; & O O % % : Z <.g.g.g.g.g.",
"g.g.g.g.g.g.g.g.g.d.g.g.i.r.O.p O O % % O X i } 7.r.f.g.f.w.5.E < $ $ $ $ $ % $ + e [ s.g.d.g.-.n @ + % $ O % % X : ( r.f.g.g.g.",
"g.g.g.g.g.g.g.g.g.g.g.g.i.O.p % O $ - + & + O u *.f.g.g.f.w.~ 2 + % $ $ $ % % # w | u.i.f.f.:.n $ % $ $ % $ $ $ @ j &.r.g.g.g.g.",
"g.g.g.g.g.g.g.d.f.f.g.d.X.p % % O - $ % & + : D 1.f.f.f.d.d.{ 9 % % % % % % X e { i.u.i.i.:.b @ % % $ $ % % + $ c &.g.s.g.g.g.g.",
"g.g.g.g.g.g.g.g.w.f.d.X.i $ % # O % % $ + : H ,.s.f.w.f.d.a.a.] 6   % & % # e | u.i.i.i.:.v % % $ $ $ % % % O c &.g.f.g.g.g.g.g.",
"g.g.g.g.g.g.d.g.f.d.X.i # $ $ % + % % O = J 1.g.f.f.4.*.6.i.a.a.' 5 $ & $ q { 6.g.f.i.-.b $ & % $ $ % % + @ z *.f.g.g.f.g.g.g.g.",
"g.g.g.g.g.i.g.i.s. .i $ % % % O + + & : H 2.g.i.g.2.K p { f.u.d.d.] 0 . w  .s.f.g.f.-.v % @ # % % % % % $ b &.f.f.g.s.f.g.g.g.g.",
"g.g.g.g.g.a.i.i. .t + % % % $ + + O : I 1.6.w.w.4.P ; X w [ i.d.g.6.[ x } d.i.i.d.*.l $ % # $ $ % % % # c -.g.g.g.g.g.g.g.g.g.g.",
"g.g.g.g.i.i.i...p O $ % $ O + & O : L 2.g.r.i.2.P > # # X 9 [ u.i.s.6.2.u.d.g.g.-.z @ % % % % # $ % $ b *.g.g.g.g.g.g.g.g.g.g.g.",
"g.g.g.g.g.i. .t $ % % $ $ $ - % > I 2.f.r.r.4.K > % $ $ $ $ 9 [ w.r.d.u.g.i.g.%.z $ % % % % & $ $ $ b -.f.i.g.i.g.g.g.g.g.g.g.g.",
"g.g.g.u.d. .r % $ $ % % % % + : I 2.d.s.i.4.K >   $ % % $ O O 6 O.f.g.f.r.f.:.l O $ % % % % $ % $ n ;.f.g.g.g.g.g.g.g.g.g.g.g.g.",
"g.i.g.d...w . % % % $ % + O < I 2.s.r.s.4.P ; $ $ $ % % % % . i $.g.g.f.y.d.#.i . O % $ % $ $ $ m >.g.d.g.g.g.g.g.g.g.g.g.g.g.g.",
"f.g.u.d.R = . % & % $ $ O , Y 2.f.s.f.2.K $ X & % $ $ % % $ i ..f.g.g.s.s.g.d. .0 . % % $ $ @ n >.f.g.d.f.g.g.g.g.g.g.g.g.g.g.g.",
"g.f.g.u.,.H : O % % $ O , Y 2.s.r.g.2.H % # # & $ $ $ $ % p ..s.g.g.g.7.i.f.u.s. .p % % $ $ M ;.f.f.g.g.g.g.g.g.g.g.g.g.g.g.g.g.",
"g.g.g.g.g.<.L $ X % $ < Y 2.s.s.f.1.H % % % $ % % $ % O p X.d.g.s.i.$.V ' u.i.w.5. .w O $ B ,.g.g.g.g.g.g.g.g.g.g.g.g.g.g.g.g.g.",
"g.g.g.g.g.w.3.I = X > Y 6.f.r.s.2.H ; $ % $ $ $ $ $ % p X.r.g.f.i.$.h @ 6 ) a.u.i.i. .d N <.g.g.g.g.g.g.g.g.g.g.g.g.g.g.g.g.g.g.",
"g.g.g.g.g.y.a.<.D 3 Y 2.s.r.r.<.S - $ % % % % $ $ $ d o.d.i.f.i.$.h % $ $ 8 ) a.f.f.f.-.,.s.f.g.g.g.g.g.g.g.g.g.g.g.g.g.g.g.g.g.",
"g.g.g.g.i.i.i.i.1.#.s.r.d.g.1.S % @ $ $ $ % % % $ p O.f.g.s.i.$.f . $ % % $ 2 ) a.w.f.g.d.g.g.g.g.g.g.g.g.g.g.g.g.g.g.g.g.g.g.g.",
"g.g.g.g.g.f.g.g.g.g.f.i.g.,.S $ # % % $ $ % % $ d o.d.i.i.i.$.g $ # $ % % $ # 2 _ a.s.d.g.r.f.g.g.g.g.g.g.g.g.g.g.g.g.g.g.g.g.g.",
"g.g.g.g.g.g.g.g.g.f.g.g.<.A $ # % % % % $ % @ d O.g.d.g.i.+.f $ $ $ $ $ % $ $ @ L 7.g.g.f.f.g.g.g.g.g.g.g.g.g.g.g.g.g.g.g.g.g.g.",
"g.g.g.g.g.g.g.f.g.g.g.g...2 # # $ % $ $ $ @ f @.i.i.g.i.+.f % $ # % $ $ $ $ % C <.f.f.g.g.g.g.g.g.g.g.g.g.g.g.g.g.g.g.g.g.g.g.g.",
"g.g.g.g.g.g.g.g.g.g.g.g.<.J > $ $ % % % $ f @.d.g.i.i.+.s $ & % $ % % % % # H ,.g.g.g.g.g.g.g.g.g.g.g.g.g.g.g.g.g.g.g.g.g.g.g.g.",
"g.g.g.g.g.g.g.g.g.g.g.g.a.4.W > X % X $ g @.f.i.f.i.+.s # % $ $ % # @ + - Z ,.g.i.g.g.g.g.g.g.g.g.g.g.g.g.g.g.g.g.g.g.g.g.g.g.g.",
"g.g.g.g.g.g.g.g.g.g.g.d.u.w.5.R 1 + $ h $.u.i.f.f.O.s $ & % @ % % $ X - S 1.r.s.g.g.f.g.g.g.g.g.g.g.g.g.g.g.g.g.g.g.g.g.g.g.g.g.",
"g.g.g.g.g.g.g.g.g.g.g.g.s.s.w.3.L = h $.u.i.i.i.o.p # % % $ % % % % - H 1.g.g.g.g.g.g.g.g.g.g.g.g.g.g.g.g.g.g.g.g.g.g.g.g.g.g.g.",
"g.g.g.g.g.g.g.g.g.g.g.g.g.g.d.g.4.{ %.d.i.i.i.O.p & % $ @ % % % + : H 1.g.d.d.g.g.g.g.g.g.g.g.g.g.g.g.g.g.g.g.g.g.g.g.g.g.g.g.g.",
"g.g.g.g.g.g.g.g.g.g.g.g.g.d.s.s.i.g.g.g.g.g.X.p # % $ $ % % % $ - H <.f.d.d.g.g.g.g.g.g.g.g.g.g.g.g.g.g.g.g.g.g.g.g.g.g.g.g.g.g.",
"g.g.g.g.g.g.g.g.g.g.g.g.g.g.g.f.g.i.w.f.u...e % # # $ $ $ & % $ J 2.f.g.g.g.g.g.g.g.g.g.g.g.g.g.g.g.g.g.g.g.g.g.g.g.g.g.g.g.g.g.",
"g.g.g.g.g.g.g.g.g.g.g.g.g.g.g.g.g.g.f.a.<.k X % % $ $ $ $ % : J 2.g.g.g.g.g.g.g.g.g.g.g.g.g.g.g.g.g.g.g.g.g.g.g.g.g.g.g.g.g.g.g.",
"g.g.g.g.g.g.g.g.g.g.g.g.g.g.g.g.g.g.g.g.y.Y > + % % % $ & $ F 3.g.i.g.g.g.g.g.g.g.g.g.g.g.g.g.g.g.g.g.g.g.g.g.g.g.g.g.g.g.g.g.g.",
"g.g.g.g.g.g.g.g.g.g.g.g.g.g.g.g.g.g.g.g.d.2./ 2 $ $ $ $ > L 2.g.i.g.g.f.g.g.g.g.g.g.g.g.g.g.g.g.g.g.g.g.g.g.g.g.g.g.g.g.g.g.g.g.",
"g.g.g.g.g.g.g.g.g.g.g.g.g.g.g.g.g.g.f.g.d.g.s./ 2 $ % : L 2.d.f.g.g.g.g.g.g.g.g.g.g.g.g.g.g.g.g.g.g.g.g.g.g.g.g.g.g.g.g.g.g.g.g.",
"g.g.g.g.g.g.g.g.g.g.g.g.g.g.g.g.g.g.g.g.g.g.r.7.Q 1 : L 2.d.s.r.f.g.g.g.g.g.g.g.g.g.g.g.g.g.g.g.g.g.g.g.g.g.g.g.g.g.g.g.g.g.g.g.",
"g.g.g.g.g.g.g.g.g.g.g.g.g.g.g.g.g.g.g.d.d.g.r.s.4.( / 1.d.g.g.s.g.g.g.g.g.g.g.g.g.g.g.g.g.g.g.g.g.g.g.g.g.g.g.g.g.g.g.g.g.g.g.g.",
"g.g.g.g.g.g.g.g.g.g.g.g.g.g.g.g.g.g.g.g.g.g.i.g.g.d.d.g.g.g.g.g.g.g.g.g.g.g.g.g.g.g.g.g.g.g.g.g.g.g.g.g.g.g.g.g.g.g.g.g.g.g.g.g.",
"g.g.g.g.g.g.g.g.g.g.g.g.g.g.g.g.g.g.g.g.g.g.g.g.g.g.g.g.g.g.g.g.g.g.g.g.g.g.g.g.g.g.g.g.g.g.g.g.g.g.g.g.g.g.g.g.g.g.g.g.g.g.g.g.",
"g.g.g.g.g.g.g.g.g.g.g.g.g.g.g.g.g.g.g.g.g.g.g.g.g.g.g.g.g.g.g.g.g.g.g.g.g.g.g.g.g.g.g.g.g.g.g.g.g.g.g.g.g.g.g.g.g.g.g.g.g.g.g.g.",
"g.g.g.g.g.g.g.g.g.g.g.g.g.g.g.g.g.g.g.g.g.g.g.g.g.g.g.g.g.g.g.g.g.g.g.g.g.g.g.g.g.g.g.g.g.g.g.g.g.g.g.g.g.g.g.g.g.g.g.g.g.g.g.g."
};
