/* XPM */
static char *_db2078f3a674fa2bb1a5db7f46c2ca67nk5oqWtyjWQzuR5[] = {
/* columns rows colors chars-per-pixel */
"64 64 117 2 ",
"   c #27562F",
".  c #28562E",
"X  c #27582F",
"o  c #28592E",
"O  c #275531",
"+  c #295632",
"@  c #275830",
"#  c #295931",
"$  c #2E5739",
"%  c #2E5B39",
"&  c #34573E",
"*  c #335D3D",
"=  c #365E41",
"-  c #366140",
";  c #3A6345",
":  c #3E6846",
">  c #3E6649",
",  c #3F6949",
"<  c #41654C",
"1  c #436A4E",
"2  c #456B51",
"3  c #496C54",
"4  c #4A7155",
"5  c #4E7359",
"6  c #51765C",
"7  c #52795E",
"8  c #557A61",
"9  c #5B7D65",
"0  c #5D7F6A",
"q  c #588166",
"w  c #5E836B",
"e  c #608067",
"r  c #62846D",
"t  c #68866E",
"y  c #65896F",
"u  c #658770",
"i  c #658971",
"p  c #6A8C74",
"a  c #6E8E79",
"s  c #728E77",
"d  c #6E917B",
"f  c #73947D",
"g  c #779681",
"h  c #799682",
"j  c #779884",
"k  c #7D9B86",
"l  c #819E89",
"z  c #83A28E",
"x  c #85A193",
"c  c #8BA593",
"v  c #8EA994",
"b  c #8EAC99",
"n  c #92AC9B",
"m  c #93B09C",
"M  c #99B29F",
"N  c #9BB4A3",
"B  c #9EB9A5",
"V  c #9FBAA9",
"C  c #A3B7AA",
"Z  c #A4BDAC",
"A  c #A9BEAE",
"S  c #A8C0AF",
"D  c #A6C2B1",
"F  c #ACC4B4",
"G  c #ABC8B7",
"H  c #AFCBBA",
"J  c #B2C5B5",
"K  c #B2C6B8",
"L  c #B8C4BC",
"P  c #B3CCBC",
"I  c #B9CCBF",
"U  c #B6CDC0",
"Y  c #BBD2C4",
"T  c #C1D4C5",
"R  c #C2D6C9",
"E  c #C3D9CB",
"W  c #CBDACF",
"Q  c #C6DCD0",
"!  c #CADED1",
"~  c #D0DED4",
"^  c #CCE1D5",
"/  c #CDE3D8",
"(  c #D4E0D6",
")  c #D4E5DA",
"_  c #DAE6DC",
"`  c #D6E9DD",
"'  c #DBEADF",
"]  c #D6EAE1",
"[  c #DCECE3",
"{  c #DEF0E5",
"}  c #DFF0E9",
"|  c #E2EDE4",
" . c #E6EFE9",
".. c #EAEFEA",
"X. c #E0F1E5",
"o. c #E5F3EB",
"O. c #EAF4ED",
"+. c #EDF6F1",
"@. c #EEF9F1",
"#. c #F0F5F4",
"$. c #F3F6F4",
"%. c #F1F8F0",
"&. c #F3FBF5",
"*. c #F2FFF6",
"=. c #F8FCF7",
"-. c #F8FDF7",
";. c #F6FBFA",
":. c #F3FFF8",
">. c #F7FFF8",
",. c #FBFAF9",
"<. c #FEF9FB",
"1. c #FBFEF9",
"2. c #F9FDFA",
"3. c #FCFBFD",
"4. c #FDFDFF",
"5. c #FEFCFE",
"6. c white",
/* pixels */
"6.6.6.6.6.6.6.6.6.6.6.6.6.6.6.6.6.6.6.6.6.6.6.6.6.6.6.6.6.6.6.6.6.6.6.6.6.6.6.6.6.6.6.6.6.6.6.6.6.6.6.6.6.6.6.6.6.6.6.6.6.6.6.6.",
"6.6.6.6.6.6.6.6.6.6.6.6.6.6.6.6.6.6.6.6.6.6.6.6.6.6.6.6.6.6.6.6.6.6.6.6.6.6.6.6.6.6.6.6.6.6.6.6.6.6.6.6.6.6.6.6.6.6.6.6.6.6.6.6.",
"6.6.6.6.6.6.6.6.6.6.6.6.6.6.6.6.6.6.6.6.6.6.6.6.6.6.6.6.6.6.6.6.6.6.6.6.6.6.6.6.6.6.6.6.6.6.6.6.6.6.6.6.6.6.6.6.6.6.6.6.6.6.6.6.",
"6.6.6.6.6.6.6.6.6.6.6.6.6.6.6.6.6.6.6.6.6.6.6.6.6.6.6.6.6.6.6.6.6.6.6.6.6.6.6.6.6.6.6.6.6.6.6.6.6.6.6.6.6.6.6.6.6.6.6.6.6.6.6.6.",
"6.6.6.6.6.6.6.6.6.6.6.6.6.6.6.6.6.6.6.6.6.6.6.6.6.6.6.6.6.6.6.6.6.6.6.6.6.6.6.6.6.6.6.6.6.6.6.6.6.6.6.6.6.6.6.6.6.6.6.6.6.6.6.6.",
"6.6.6.6.6.6.6.6.6.6.6.6.6.6.6.6.6.6.6.6.6.6.6.6.6.6.3.6.6.6.6.6.6.6.,.6. .+.6.3.2.6.6.6.3.6.6.6.6.6.6.6.6.6.6.6.6.6.6.6.6.6.6.6.",
"6.6.6.6.6.6.6.6.6.6.6.6.6.6.6.6.6.6.6.6.6.6.6.6.6.6.6.6.3.6.6.3.4.,.3.! w x O.3.6.3.3.6.6.6.6.6.6.6.6.6.6.6.6.6.6.6.6.6.6.6.6.6.",
"6.6.6.6.6.6.6.6.6.6.6.6.6.6.6.6.6.6.6.6.6.6.6.6.6.3.3.6.6.6.6.6.3.,.! 8 + $ z o.2.,.6.6.6.3.6.6.6.6.6.6.6.6.6.6.6.6.6.6.6.6.6.6.",
"6.6.6.6.6.6.6.6.6.6.6.6.6.6.6.6.6.6.6.6.6.6.6.6.6.6.6.6.6.6.6.6.3.W 6 X o   % l o.2.6.6.6.6.6.6.6.6.6.6.6.6.6.6.6.6.6.6.6.6.6.6.",
"6.6.6.6.6.6.6.6.6.6.6.6.6.6.6.6.6.6.6.6.6.6.6.6.6.6.6.6.6.2.-.;.W 8 O # o .   + l o.6.3.6.6.6.6.6.6.6.6.6.6.6.6.6.6.6.6.6.6.6.6.",
"6.6.6.6.6.6.6.6.6.6.6.6.6.6.6.6.6.6.6.6.6.6.6.6.6.6.6.6.6.;.:.E 7 @ @ X X     o $ x ;.3.6.6.6.6.6.6.6.6.6.6.6.6.6.6.6.6.6.6.6.6.",
"6.6.6.6.6.6.6.6.6.6.6.6.6.6.6.6.6.6.6.6.6.6.6.6.6.3.6.3.6.>.E 6 O @ + X O @ # o $ n ,.3.3.6.6.6.6.4.6.6.6.6.6.6.6.6.6.6.6.6.6.6.",
"6.6.6.6.6.6.6.6.6.6.6.6.6.6.6.6.6.6.6.6.6.6.6.6.6.4.6.<.<.R 6 @ @   o .   @ . * c O.6.6.4.<.6.6.4.6.3.6.6.6.6.6.6.6.6.6.6.6.6.6.",
"6.6.6.6.6.6.6.6.6.6.6.6.6.6.6.6.6.6.6.6.3.6.6.6.6.4.;.;.R 5   +     X X +   * b O.6.2.,.*.+.1.1.;.6.6.4.4.6.6.6.6.6.6.6.6.6.6.6.",
"6.6.6.6.6.6.6.6.6.6.6.6.6.6.6.6.6.6.6.6.6.6.6.6.3.1.=.E 5 O @ @   . @ + @ & c &.6.6.;...c z { -.<.2.6.4.4.4.6.6.6.6.6.6.6.6.6.6.",
"6.6.6.6.6.6.6.6.6.6.6.6.6.6.6.6.6.6.6.6.4.6.3.6.<.=.T 5 @ + + o O   + @ * n O.2.3.2.o.z $ + f { 2.<.2.6.6.6.6.6.6.6.6.6.6.6.6.6.",
"6.6.6.6.6.6.6.6.6.6.6.6.6.6.6.6.6.6.6.6.6.6.;.;.;.Y 5 O + # o   . X   * n O.1.<.2.o.k % . O + f X.2.1.6.<.6.6.6.6.6.6.6.6.6.6.6.",
"6.6.6.6.6.6.6.6.6.6.6.6.6.6.6.6.6.6.4.6.6.6.=.*.Y 4   + + o X X + . & n &.1.<.6.o.k %   + .   @ f [ 2.1.3.6.6.6.6.6.6.6.6.6.6.6.",
"6.6.6.6.6.6.6.6.6.6.6.6.6.6.3.6.6.6.6.4.6.<.=.Y 4 @ o + . . X o o - n %.2.6.1...k % o o   + X   $ d O.2.3.6.6.6.6.4.6.6.6.6.6.6.",
"6.6.6.6.6.6.6.6.6.6.6.6.6.6.3.6.6.6.3.6.2.2.Y 4 o + . . X .   X * m @.6.<.6.O.h # o o     o X   . w { 6.6.6.6.6.4.4.6.6.6.6.6.6.",
"6.6.6.6.6.6.6.6.6.6.6.6.6.6.6.6.6.6.2.,.-.I 2 + @ @ . . @ X   - N @.;.6.2.o.h + . o o .   X X   6 W ;.3.6.6.6.6.4.6.6.4.6.6.6.6.",
"6.6.6.6.6.6.6.6.6.6.6.6.6.4.4.3.3.6.6.>.Y 2 O X @ O . @ + + & M &.6.6.;...f % o o o o . O O @ 6 Q 6.6.6.6.;.2.6.6.6.4.6.6.6.6.6.",
"6.6.6.6.6.6.6.6.6.6.6.6.6.4.6.6.1.3.2.I 3 @ @ @ @ . @ @ @ = N %.<.6.;.X.g % o .   @     O @ 8 ^ 6.3.3.6.R n [ 2.<.2.6.;.4.6.6.6.",
"6.6.6.6.6.6.6.6.6.6.6.6.6.6.6.2.>.2.L 2 O + # +     @   = B %.1.2.2. .f # X + .     @ @ O q E ;.,.4.;.R 6 + p ' 2.<.;.4.6.6.6.6.",
"6.6.6.6.6.6.6.6.6.6.6.6.6.6.6.2.*.P 1 # @ @   . o + X = B &.1.<.6.| f + o o @       X + 9 ! ,.<.6.6.E 5 @ o O p ` 2.3.3.6.6.6.6.",
"6.6.6.6.6.6.6.6.3.6.6.3.6.6.3.=.J 1 @ X @     . o o - C %.<.3.6.| s % # o o   o     @ q ^ 2.<.6.;.E 5   + + . O y ` -.6.6.6.6.6.",
"6.6.6.6.6.6.6.6.6.6.6.3.2.<.2.L 1 X @   @ O O X   - B *.3.6.2.| s @ . o     . o X   8 ^ 2.6.<.>.Y 6 @   o     o X y ' 2.6.6.6.6.",
"6.6.6.6.6.6.6.6.6.6.6.6.,.>.G < O + @   @ @ @ O - Z *.;.6.2.[ f + . o + .   . o O 0 / ;.3.,.>.T 5 @ X + .         & J 6.6.6.6.6.",
"6.6.6.6.6.6.6.3.4.4.6.<.>.F > @ @ @ .   + #   = Z ,.3.6.;.[ s # + . X     @ @ O 9 ) 4.3.6.6.Y 3 O O @ @ + X O   $ z O.2.6.6.6.6.",
"6.6.6.6.6.6.6.6.6.;.2.>.J < @ # + . . X @ @ ; Z -.2.<.<.' p + # o   @ O . @ + w / 6.4.,.;.Y 5   O @ @ O X o @ % z o.6.<.6.6.6.6.",
"6.6.6.6.6.6.6.6.;.;.*.F <   + + o   X @   ; A =.1.6.2.| p # + o   . O @ @ @ w ^ ;.6.6.;.Y 4 O   @ @         % z o.6.<.3.6.6.6.6.",
"6.6.6.6.6.6.6.3.2.*.D >   o # @ X X + X ; A -.2.<.1.[ p + o + + X   @ @ O w ) 6.;.6.;.Y 4 O @     @   O   * z o.6.3.3.6.6.6.6.6.",
"6.6.6.6.6.6.3.3.*.S > @ X + .   X X X > A -.2.6.6.' p + @ X     o o O O i ) 6.6.<.;.P 4 . @ + X . . o   $ c O.6.6.3.6.6.6.6.6.6.",
"6.6.6.6.6.3.<.-.S >   o     @ + o   > D =.3.6.2._ t . o X     X o o O u ^ ;.,.<.,.Y 2 # X X @   . .   * c O.4.>.6.6.6.6.6.6.6.6.",
"6.6.6.6.6.,.-.A ; @ # #   X @ + O ; Z ;.;.6.1._ u @ X o X X O @ o . y ) ;.4.,.;.U 3 O O @ @   . o + % v O.4.4.4.2.6.6.6.6.6.6.6.",
"6.6.6.6.6.@.Z > @ @ + o   o @ @ < F >.6.4.;._ y + + X X X   O O . y _ 6.6.6.;.P < O O @   @ . o o * v O.6.4.3.6.6.6.6.6.6.6.6.6.",
"6.6.,.6.-.Z - @ @ @ O O @   @ 1 F 1.1.6.2._ r + # o     @ @ @ % i ` 2.6.3.;.P 1   @ @ @ X     o * n +.3.3.6.6.6.6.6.6.6.6.6.6.6.",
"6.6.,.6.L ; O + @ @ .   X   < F ;.2.6.2._ e . + + X .   @ O O p ` ;.<.6.:.P 1 O X + @       X * b %.4.4.6.6.6.6.6.6.6.6.6.6.6.6.",
"6.6.6.;.I >   o       +   < J <.1.6.2._ r @ o o   o o   + $ i ' 6.4.2.;.H 1 @ +   o +       * n %.6.3.6.4.6.6.6.6.6.6.6.6.6.6.6.",
"6.6.6.6.2.F : X o . o   1 J 2.3.3.6.~ 9 + + o   . o o   # p ] 6.<.=.;.H 1   X #   .   X   * n +.6.6.6.3.6.6.6.6.6.6.6.6.6.6.6.6.",
"6.6.6.6.6.;.F : X X   2 P :.2.6.2.~ 9 # . + o . X X X @ a ] ;.3.,.>.F < O @   @ . . o . = m $.2.2.3.6.6.6.6.6.6.6.6.6.6.6.6.6.6.",
"6.6.6.6.6.,.,.J , X 2 L 6.;.2.2.( 9 # o o o . . X X @ p [ 3.3.3.>.F < O @ @ @ . . o # * n %.6.6.6.6.6.6.6.6.6.6.6.6.6.6.6.6.6.6.",
"6.6.6.6.6.3.<.=.G w P ;.6.6.2.^ 9 + # o o . . . + $ d [ 6.3.6.;.F > O @ @   @ . o . - N +.3.6.4.6.6.6.6.6.6.6.6.6.6.6.6.6.6.6.6.",
"6.6.6.6.6.6.6.2.;.o.;.6.4.;.( 9 + # o o . @ @ # + d [ <.3.3.&.F > O O O @     X   = N $.4.4.4.6.6.6.6.6.6.6.6.6.6.6.6.6.6.6.6.6.",
"6.6.6.6.6.6.3.6.6.3.<.4.6.~ 8   o @       @ @ + f [ ;.3.6.:.D >   @ + + X X o   * N @.6.6.3.6.6.6.6.6.6.6.6.6.6.6.6.6.6.6.6.6.6.",
"6.6.6.6.6.6.6.6.4.6.3.3._ 9 . + +   X o @ @ $ g | 6.2.6.&.D > @ @     .   X   * N -.4.4.6.3.6.6.6.6.6.6.6.6.6.6.6.6.6.6.6.6.6.6.",
"6.6.6.6.6.2.6.6.6.6.6.6.! 2 @ @ o @ X o @ + g ] 2.<.,.&.D >   X O X . . X X - B &.,.6.4.6.6.6.6.6.6.6.6.6.6.6.6.6.6.6.6.6.6.6.6.",
"6.6.6.6.6.6.6.6.6.6.6.6.2.L 1 @ @ @ +   + g } ;.6.2.&.Z >   @ X @ @ . o   - B &.6.6.6.6.6.6.6.6.6.6.6.6.6.6.6.6.6.6.6.6.6.6.6.6.",
"6.6.6.6.6.6.6.6.6.6.6.3.6.;.L 2 O @ O O g o.3.3.3.:.V > O O O @ . o # + = Z +.4.6.,.3.6.6.6.6.6.6.6.6.6.6.6.6.6.6.6.6.6.6.6.6.6.",
"6.6.6.6.6.6.6.6.6.6.6.3.3.3.;.U 2   $ j } 4.3.4.&.V ; O @ @ O O o o o ; C ;.6.4.6.6.6.6.6.6.6.6.6.6.6.6.6.6.6.6.6.6.6.6.6.6.6.6.",
"6.6.6.6.6.6.6.6.6.6.6.6.6.6.6.;.Y 8 k  .;.4.,.:.V ; O O O X     o O ; C $.6.4.4.6.6.6.6.6.6.6.6.6.6.6.6.6.6.6.6.6.6.6.6.6.6.6.6.",
"6.6.6.6.6.6.6.6.6.6.6.6.6.6.6.6.;.} +.;.6.4.&.V ;   @ O @ X O X   ; Z ,.3.3.6.6.6.6.6.6.6.6.6.6.6.6.6.6.6.6.6.6.6.6.6.6.6.6.6.6.",
"6.6.6.6.6.6.6.6.6.6.6.6.3.6.6.3.6.6.3.3.6.&.V ; @ @ @ . @ . O   ; Z &.6.3.;.6.6.6.6.6.6.6.6.6.6.6.6.6.6.6.6.6.6.6.6.6.6.6.6.6.6.",
"6.6.6.6.6.6.6.6.6.6.6.6.6.6.6.6.3.6.3.3.&.B = @ @ @ @   . .   ; D -.6.6.6.6.6.6.6.6.6.6.6.6.6.6.6.6.6.6.6.6.6.6.6.6.6.6.6.6.6.6.",
"6.6.6.6.6.6.6.6.6.6.6.6.6.6.6.6.6.6.3.6.O.9   @ @     @ o   > A &.6.,.6.6.6.6.6.6.6.6.6.6.6.6.6.6.6.6.6.6.6.6.6.6.6.6.6.6.6.6.6.",
"6.6.6.6.6.6.6.6.6.6.6.6.6.6.6.6.6.6.3.<.6.Y 4 O @ @     @ : A ,.6.6.<.6.6.6.6.6.6.6.6.6.6.6.6.6.6.6.6.6.6.6.6.6.6.6.6.6.6.6.6.6.",
"6.6.6.6.6.6.6.6.6.6.6.6.6.6.6.6.6.6.6.6.6.3.R 5 O O O O > D *.6.6.6.6.6.6.6.6.6.6.6.6.6.6.6.6.6.6.6.6.6.6.6.6.6.6.6.6.6.6.6.6.6.",
"6.6.6.6.6.6.6.6.6.6.6.6.6.6.6.6.6.6.3.;.4.6.6.T 5 O O 1 F *.4.6.4.6.6.6.6.6.6.6.6.6.6.6.6.6.6.6.6.6.6.6.6.6.6.6.6.6.6.6.6.6.6.6.",
"6.6.6.6.6.6.6.6.6.6.6.6.6.6.6.6.6.6.6.6.4.4.4.2.E 5 1 U ;.3.<.;.;.6.6.6.6.6.6.6.6.6.6.6.6.6.6.6.6.6.6.6.6.6.6.6.6.6.6.6.6.6.6.6.",
"6.6.6.6.6.6.6.6.6.6.6.6.6.6.6.6.6.6.6.6.4.4.4.;.2./ E ;.6.3.6.2.6.6.6.6.6.6.6.6.6.6.6.6.6.6.6.6.6.6.6.6.6.6.6.6.6.6.6.6.6.6.6.6.",
"6.6.6.6.6.6.6.6.6.6.6.6.6.6.6.6.6.6.6.6.6.6.6.6.6.6.6.6.6.6.6.6.6.6.6.6.6.6.6.6.6.6.6.6.6.6.6.6.6.6.6.6.6.6.6.6.6.6.6.6.6.6.6.6.",
"6.6.6.6.6.6.6.6.6.6.6.6.6.6.6.6.6.6.6.6.6.6.6.6.6.6.6.6.6.6.6.6.6.6.6.6.6.6.6.6.6.6.6.6.6.6.6.6.6.6.6.6.6.6.6.6.6.6.6.6.6.6.6.6.",
"6.6.6.6.6.6.6.6.6.6.6.6.6.6.6.6.6.6.6.6.6.6.6.6.6.6.6.6.6.6.6.6.6.6.6.6.6.6.6.6.6.6.6.6.6.6.6.6.6.6.6.6.6.6.6.6.6.6.6.6.6.6.6.6.",
"6.6.6.6.6.6.6.6.6.6.6.6.6.6.6.6.6.6.6.6.6.6.6.6.6.6.6.6.6.6.6.6.6.6.6.6.6.6.6.6.6.6.6.6.6.6.6.6.6.6.6.6.6.6.6.6.6.6.6.6.6.6.6.6."
};
