/* XPM */
static char *_adfc418271e441fe54a60444f98e915E6fpOyfEKLDOorzB[] = {
/* columns rows colors chars-per-pixel */
"64 64 137 2 ",
"   c #1F3F5E",
".  c #1C3E64",
"X  c #1C3F6A",
"o  c #1E415E",
"O  c #22425F",
"+  c #1D4165",
"@  c #1C426A",
"#  c #1D4371",
"$  c #234463",
"%  c #254965",
"&  c #2C4A66",
"*  c #244669",
"=  c #25496B",
"-  c #2B4B6B",
";  c #2E526B",
":  c #34526D",
">  c #38566F",
",  c #33596E",
"<  c #3B596F",
"1  c #2D4D71",
"2  c #2E5371",
"3  c #345473",
"4  c #385777",
"5  c #355874",
"6  c #3B5A74",
"7  c #3C5D7B",
"8  c #425C74",
"9  c #43607B",
"0  c #4B657D",
"q  c #456584",
"w  c #496580",
"e  c #4D6B83",
"r  c #546E80",
"t  c #557186",
"y  c #587086",
"u  c #557189",
"i  c #5A758B",
"p  c #5D798E",
"a  c #5D7A91",
"s  c #5F7E98",
"d  c #617788",
"f  c #62798E",
"g  c #697F8C",
"h  c #627D93",
"j  c #697F93",
"k  c #647E98",
"l  c #668094",
"z  c #6B8396",
"x  c #6E8897",
"c  c #65839B",
"v  c #6C859B",
"b  c #6C899E",
"n  c #71879A",
"m  c #748A9D",
"M  c #79929F",
"N  c #6F8DA3",
"B  c #758DA2",
"V  c #7A8EA2",
"C  c #7B93A5",
"Z  c #7C96AA",
"A  c #7D98AC",
"S  c #8299A2",
"D  c #8196AA",
"F  c #849AAC",
"G  c #889EAD",
"H  c #849DB1",
"J  c #85A0AC",
"K  c #87A2B4",
"L  c #8CA3B5",
"P  c #93A6B6",
"I  c #98A7B0",
"U  c #97A9B7",
"Y  c #9BA9B5",
"T  c #91A4BB",
"R  c #94AABA",
"E  c #99ACBB",
"W  c #9EB1BC",
"Q  c #A2B3BE",
"!  c #9EB4C3",
"~  c #A3B5C3",
"^  c #A9B7C1",
"/  c #A4B9C6",
"(  c #A8B7C9",
")  c #A5BCC9",
"_  c #ABBDCA",
"`  c #ADC1CD",
"'  c #B3C1CB",
"]  c #BAC9CF",
"[  c #ACC1D1",
"{  c #B3C6D2",
"}  c #BBCAD3",
"|  c #BFCDD8",
" . c #C1CEDA",
".. c #C4D1D9",
"X. c #C9D6DE",
"o. c #CFD9DD",
"O. c #D0D7DE",
"+. c #D1D9DE",
"@. c #C6D6E1",
"#. c #C4D8E1",
"$. c #CCDCE4",
"%. c #CDDEE8",
"&. c #D1DEE6",
"*. c #D2E0E7",
"=. c #D8E0E6",
"-. c #D5E3EA",
";. c #DAE6EC",
":. c #DDE8EE",
">. c #D9E4F0",
",. c #DDEBF1",
"<. c #E2E6EE",
"1. c #E3E9EE",
"2. c #E3EEF3",
"3. c #EAEEF4",
"4. c #E5F1F5",
"5. c #EBF2F6",
"6. c #E5F2F8",
"7. c #EDF4F9",
"8. c #EEF9FB",
"9. c #F2F6F5",
"0. c #FDFCF6",
"q. c #F2F7FA",
"w. c #FEF7FA",
"e. c #F7FAFA",
"r. c #F3FBFE",
"t. c #F5FBFC",
"y. c #F6FCFD",
"u. c #FEFAFA",
"i. c #FAFDF9",
"p. c #F9FFF9",
"a. c #FFFEF9",
"s. c #FEFDFB",
"d. c #FCFBFD",
"f. c #FEFBFC",
"g. c #FAFDFF",
"h. c #FBFFFE",
"j. c white",
/* pixels */
"j.j.j.j.j.j.j.j.j.j.j.j.j.j.j.j.j.j.j.j.j.j.j.j.j.j.j.j.j.j.j.j.j.j.j.j.j.j.j.j.j.j.j.j.j.j.j.j.j.j.j.j.j.j.j.j.j.j.j.j.j.j.j.j.",
"j.j.j.j.j.j.j.j.j.j.j.j.j.j.j.j.j.j.j.j.j.j.j.j.j.j.j.j.j.j.j.j.j.j.j.j.j.j.j.j.j.j.j.j.j.j.j.j.j.j.j.j.j.j.j.j.j.j.j.j.j.j.j.j.",
"j.j.j.j.j.j.j.j.j.j.j.j.j.j.j.j.j.j.j.j.j.j.j.j.j.j.j.j.j.j.j.j.j.j.j.j.j.j.j.j.j.j.j.j.j.j.j.j.j.j.j.j.j.j.j.j.j.j.j.j.j.j.j.j.",
"j.j.j.j.j.j.j.j.j.j.j.j.j.j.j.j.j.j.j.j.j.j.j.j.j.j.j.j.j.j.j.j.j.j.j.j.j.j.j.j.j.j.j.j.j.j.j.j.j.j.j.j.j.j.j.j.j.j.j.j.j.j.j.j.",
"j.j.j.j.j.j.j.j.j.j.j.j.j.j.j.j.j.j.j.j.j.j.j.j.j.j.j.j.j.j.j.j.j.j.j.j.j.j.j.j.j.j.j.j.j.j.j.j.j.j.j.j.j.j.j.j.j.j.j.j.j.j.j.j.",
"j.j.j.j.j.j.j.j.j.j.j.j.j.j.j.j.j.j.j.j.j.j.j.j.j.j.j.j.j.j.j.j.j.j.j.j.j.j.j.j.j.j.j.j.j.j.j.j.j.j.j.j.j.j.j.j.j.j.j.j.j.j.j.j.",
"j.j.j.j.j.j.j.j.j.j.j.j.j.j.j.j.j.j.j.j.j.j.s.j.j.h.d.j.j.s.j.j.j.j.j.j.j.j.j.j.j.j.j.j.j.j.j.j.j.j.j.j.j.j.j.j.j.j.j.j.j.j.j.j.",
"j.j.j.j.j.j.j.j.j.j.j.j.j.j.j.j.j.j.d.j.h.y.i.j.5.T H 5.s.0.s.y.h.j.j.j.j.j.j.j.j.j.j.j.j.j.j.j.j.j.j.j.j.j.j.j.j.j.j.j.j.j.j.j.",
"j.j.j.j.j.j.j.j.j.j.j.j.j.j.j.j.j.j.j.j.j.j.0.5.F % $ m 2.i.s.i.j.j.j.j.j.j.j.j.j.j.j.j.j.j.j.j.j.j.j.j.j.j.j.j.j.j.j.j.j.j.j.j.",
"j.j.j.j.j.j.j.j.j.j.j.j.j.j.j.j.j.j.e.i.h.j.3.F % + + $ B 2.h.s.s.j.j.j.j.j.j.j.j.j.j.j.j.j.j.j.j.j.j.j.j.j.j.j.j.j.j.j.j.j.j.j.",
"j.j.j.j.j.j.j.j.j.j.j.j.j.j.j.j.j.j.j.u.h.5.F % + @ @ + % B 4.j.s.u.j.j.j.j.j.j.j.j.j.j.j.j.j.j.j.j.j.j.j.j.j.j.j.j.j.j.j.j.j.j.",
"j.j.j.j.j.j.j.j.j.j.j.j.j.j.j.j.j.j.s.u.5.S $ + @ @ @ @ X $ m 4.h.j.i.d.j.j.j.j.j.j.j.j.j.j.j.j.j.j.j.j.j.j.j.j.j.j.j.j.j.j.j.j.",
"j.j.j.j.j.j.j.j.j.j.j.j.j.j.j.j.j.j.j.d.3.g + @ @ + @ @ @ @ $ N 2.j.i.j.j.j.j.j.j.j.j.j.j.j.j.j.j.j.j.j.j.j.j.j.j.j.j.j.j.j.j.j.",
"j.j.j.j.j.j.j.j.j.j.j.j.j.j.j.j.d.d.j.d.h.=.a @ @ + @ @ @ @ + + n :.j.s.s.j.h.j.j.j.j.j.j.j.j.j.j.j.j.j.j.j.j.j.j.j.j.j.j.j.j.j.",
"j.j.j.j.j.j.j.j.j.j.j.j.h.j.s.s.h.h.h.u.s.j.=.p + + @ @ @ @ + + + b ,.j.s.u.h.j.j.j.j.j.j.j.j.j.j.j.j.j.j.j.j.j.j.j.j.j.j.j.j.j.",
"j.j.j.j.j.j.j.j.j.j.j.j.j.s.s.j.2.P ' y.h.i.j.-.p + + @ @ @ @ + + O n ,.h.s.h.j.j.j.j.j.j.j.j.j.j.j.j.j.j.j.j.j.j.j.j.j.j.j.j.j.",
"j.j.j.j.j.j.j.j.j.j.j.j.u.j.j.3.B + 5 ) h.e.s.s.-.h $ . @ # @ @ @ . $ z ,.h.s.s.j.j.j.j.j.j.j.j.j.j.j.j.j.j.j.j.j.j.j.j.j.j.j.j.",
"j.j.j.j.j.j.j.j.j.j.j.j.u.h.3.B $ @ @ 3 / d.0.i.j.-.a $ + @ @ @ @ @ @ + c :.j.j.h.d.h.j.j.j.j.j.j.j.j.j.j.j.j.j.j.j.j.j.j.j.j.j.",
"j.j.j.j.j.j.j.j.j.j.j.j.h.3.B $ . @ X . , / i.i.i.j.;.f + . @ @ + @ @ @ O z :.h.d.j.j.j.j.j.j.j.j.j.j.j.j.j.j.j.j.j.j.j.j.j.j.j.",
"j.j.j.j.j.j.j.j.j.j.j.j.2.m * X # @ @ X + : / r.s.0.i.;.h + @ @ . @ @ @ + o c ;.j.d.j.j.j.j.j.j.j.j.j.j.j.j.j.j.j.j.j.j.j.j.j.j.",
"j.j.j.j.s.s.j.j.s.s.i.h.o.6 X @ @ + + @ X + 2 ! e.i.0.j.>.l + @ + + @ @ X + $ j ;.j.s.j.h.j.j.j.j.j.j.j.j.j.j.j.j.j.j.j.j.j.j.j.",
"j.j.j.j.s.s.j.j.i.0.i.i.7.! 3 @ @ + @ + + @ @ : ~ y.s.s.h.:.z $ @ @ @ @ @ @ .   F e.s.s.j.j.j.j.j.j.j.j.j.j.j.j.j.j.j.j.j.j.j.j.",
"j.j.j.j.j.h.j.j.h.h.0.0.d.e.~ 1 @ @ + + + + @ @ - ! e.h.y.j.<.l @ @ X . . + @ 9 | h.s.j.j.j.j.j.j.j.j.j.j.j.j.j.j.j.j.j.j.j.j.j.",
"j.j.j.j.j.h.u.j.,.{ 5.0.0.s.e.~ 3 + @ + + + @ @ @ ; ! e.s.0.j.;.v + @ @ @ . e X.h.s.j.j.j.u.j.j.j.j.j.j.j.j.j.j.j.j.j.j.j.j.j.j.",
"j.j.j.j.j.d.s.<.v - A 5.j.d.d.9.~ 1 @ # # @ @ + @ . ; W r.s.i.j.1.z $ # @ 0 $.j.u.u.e.O.<.j.j.u.u.j.j.j.j.j.j.j.j.j.j.j.j.j.j.j.",
"j.j.j.j.j.i.;.v $ + = D 5.y.y.0.e./ 3 @ # @ + $ + . + ; E r.h.s.0.1.v $ q @.u.0.0.r._ < d ;.h.h.h.j.j.j.j.j.j.j.j.j.j.j.j.j.j.j.",
"j.j.j.j.j.:.c @ @ + @ * C 3.i.i.h.e.^ : @ # + + @ @ @ . ; E r.s.s.h.:.I ..y.u.s.y._ 3 X + a =.j.d.j.j.j.j.j.j.j.j.j.j.j.j.j.j.j.",
"j.h.j.j.;.c * @ @ + + X % C 4.h.j.u.0.^ 3 @ @ + @ @ @ X . 2 E e.s.j.j.i.s.d.u.h._ 3 @ # @ o p *.h.u.0.h.h.j.j.j.j.j.j.j.j.j.j.j.",
"j.j.d.s.Y $ + @ @ @ @ + + % C 4.h.u.0.e._ 3 @ @ + + + + + + - Y e.j.s.s.s.d.e.( 3 + + X @ + + i *.h.i.j.h.j.j.j.j.j.j.j.j.j.j.j.",
"j.j.u.j.+.t   * @ @ @ @ + + O C 2.h.i.i.e._ 3 @ @ + + + @ @ @ - U q.s.0.0.j.$.6 + + + . X # + o i *.h.d.u.j.j.j.j.j.j.j.j.j.j.j.",
"j.u.j.h.h.$.r . @ @ @ @ @ @ @ $ V 4.h.s.s.e._ 5 @ @ @ @ + @ @ @ - P 8.s.s.j.2.B $ . @ # X X @ + + i %.h.s.s.j.j.j.j.j.j.j.j.j.j.",
"j.j.j.j.j.h.&.u + @ @ @ @ @ @ @ $ m 2.i.j.e.y._ 4 @ @ # @ + + @ @ - L t.s.s.s.2.V * # # @ + + @ @ . t %.h.e.d.d.j.j.j.j.j.j.j.j.",
"j.j.j.j.j.j.h.&.t + + @ @ @ @ @ + $ B 2.y.i.0.e._ 6 . # @ + + . @ @ - L 7.h.0.s.3.V $ @ @ + . @ @ @ o t *.h.h.d.j.j.j.j.j.j.j.j.",
"j.j.j.j.j.d.j.h.&.i + @ @ @ @ @ @ @ $ n 2.s.u.h.h.' 6 + @ + + @ @ @ + & L 8.s.i.s.3.V $ + @ @ + @ @ + + u +.h.j.j.j.j.j.j.j.j.j.",
"j.j.j.j.j.h.j.s.j.*.i o @ @ @ @ + @ @ $ n 2.j.s.u.i.' 6 @ + @ * @ @ + + - L 9.s.s.j.3.C % @ @ @ @ @ + + o 0 $.j.d.u.h.y.j.j.j.j.",
"j.j.j.j.j.h.s.j.j.h.*.p + @ @ @ @ @ @ X $ m ,.h.u.d.y.{ 6 @ @ @ @ + + @ @ - G 9.j.i.i.3.C % + @ @ @ @ + + . u $.h.0.u.h.j.j.j.j.",
"j.j.j.j.j.j.s.j.h.h.y.=.p + + @ @ @ @ @ $ $ b ,.h.y.h.d.{ 7 @ @ + + + @ @ @ = K 8.h.i.s.3.Z % + @ @ @ @ @ # + e @.y.s.s.j.j.j.j.",
"j.j.j.j.j.j.h.i.i.j.u.h.=.a . @ @ @ @ + @ @ + m 3.j.u.j.y.{ 7 + @ @ + @ @ @ @ = J 7.s.0.j.5.Z % + @ @ @ @ # X . e @.h.u.j.j.j.j.",
"j.j.j.j.j.j.j.h.i.s.j.d.h.=.h   @ @ @ + @ @ o d 1.s.u.h.h.e.] 7 + # @ @ + + + . & G 7.s.i.j.4.Z $ . @ @ @ . @ + + 0 $.j.j.j.j.j.",
"j.j.j.j.j.j.j.j.j.j.s.j.u.j.-.h + @ @ + + + p *.i.s.j.j.d.d.h.] 8 + @ @ + + + X + % F 7.h.0.s.7.F $ . @ @ . @ @ + ; _ j.j.j.j.j.",
"j.j.j.j.j.j.j.d.j.j.h.i.s.s.j.-.l + + + $ k ;.y.i.i.e.9.s.j.h.h.} 9 @ @ + + @ @ @ . = F 5.u.0.i.6.A $ + @ @ @ @ - E 7.s.s.j.j.j.",
"j.j.j.j.j.j.j.j.j.j.j.h.j.s.d.h.;.l O + l :.i.j.d.8.U n ;.j.s.i.i.} 8 @ @ + + @ @ + @ = D 9.s.s.j.5.G = @ # + & U 8.j.s.j.j.j.j.",
"j.j.j.j.j.j.j.j.j.j.j.j.j.j.s.j.h.;.z h =.h.0.j.q.R - . l ;.s.0.e.y.| q @ @ + + o + @ @ % Z 4.h.j.h.7.G % . - R e.h.d.j.j.j.j.j.",
"j.j.j.j.j.j.j.j.j.j.j.j.j.s.s.i.h.h.5.2.h.0.i.7.P - + @ + l ;.s.u.d.j.| q @ @ + + + @ @ @ = A 5.i.i.s.5.G 8 E 8.h.d.s.h.j.j.j.j.",
"j.j.j.j.j.j.j.j.j.j.j.j.j.i.h.i.j.j.u.s.u.j.7.L - + @ @ @ + s -.i.s.i.h.| 9 @ @ @ @ @ + @ @ $ Z 4.s.0.s.7.=.t.j.s.s.i.j.j.j.j.j.",
"j.j.j.j.j.j.j.j.j.j.j.j.j.j.j.i.s.u.j.j.j.y.P - @ @ + + @ @ + c =.h.h.i.i...q . # # @ + + + + % C 3.i.i.s.j.j.s.s.j.j.j.j.j.j.j.",
"j.j.j.j.j.j.j.j.j.j.j.j.j.j.j.j.j.j.j.j.j.q.M O @ @ + + @ @ @ + a =.y.i.i.y...0 . # @ + + + @ @ $ Z 6.j.s.j.j.j.j.j.j.j.j.j.j.j.",
"j.j.j.j.j.j.j.j.j.j.j.j.j.j.j.j.j.h.h.h.j.j.,.n % @ @ + + @ @ + + f =.h.u.j.s...0 + @ @ + @ # @   6 *.j.s.h.j.j.j.j.j.j.j.j.j.j.",
"j.j.j.j.j.j.j.j.j.j.j.j.j.j.j.j.j.j.h.h.s.j.h.,.v $ @ @ @ @ @ + @ + p *.h.u.0.e...0 . @ # @ # . : Q 8.h.h.j.j.j.j.j.j.j.j.j.j.j.",
"j.j.j.j.j.j.j.j.j.j.j.j.j.j.j.j.j.j.j.h.j.s.j.y.2.b $ + @ @ @ @ + +   i *.j.i.e.h.@.w . @ @ . : W r.h.s.j.j.j.j.j.j.j.j.j.j.j.j.",
"j.j.j.j.j.j.j.j.j.j.j.j.j.j.j.j.j.j.j.j.s.s.i.h.h.2.n $ X @ @ @ @ * @ o i *.h.j.j.h.#.e + @ : ~ 8.h.s.j.h.j.j.j.j.j.j.j.j.j.j.j.",
"j.j.j.j.j.j.j.j.j.j.j.j.j.j.j.j.j.j.j.j.j.i.j.s.d.h.2.m $ @ @ @ @ @ @ @ + i %.h.u.w.j.o.0 3 / q.j.s.s.s.j.j.j.j.j.j.j.j.j.j.j.j.",
"j.j.j.j.j.j.j.j.j.j.j.j.j.j.j.j.j.j.j.j.j.h.s.s.u.u.j.2.m $ + @ @ @ @ @ +   u *.d.w.w.h.&. .y.h.s.s.s.j.j.j.j.j.j.j.j.j.j.j.j.j.",
"j.j.j.j.j.j.j.j.j.j.j.j.j.j.j.j.j.j.s.j.j.j.j.h.j.j.0.h.2.m $ X @ + @ @ @ + + u $.h.d.d.i.s.j.h.s.j.j.h.j.j.j.j.j.j.j.j.j.j.j.j.",
"j.j.j.j.j.j.j.j.j.j.j.j.j.j.j.j.j.j.j.j.j.j.j.j.j.h.s.s.j.3.B % + @ @ @ + @ @ + u $.y.j.s.s.i.j.j.j.j.j.j.j.j.j.j.j.j.j.j.j.j.j.",
"j.j.j.j.j.j.j.j.j.j.j.j.j.j.j.j.j.j.j.j.j.j.j.j.j.h.j.s.d.j.6.B O @ @ @ . + # @ + x y.u.j.j.j.j.j.j.j.j.j.j.j.j.j.j.j.j.j.j.j.j.",
"j.j.j.j.j.j.j.j.j.j.j.j.j.j.j.j.j.j.j.j.j.j.j.j.j.j.j.j.j.j.y.4.C % X @ # @ X . > _ y.j.j.j.j.j.j.j.j.j.j.j.j.j.j.j.j.j.j.j.j.j.",
"j.j.j.j.j.j.j.j.j.j.j.j.j.j.j.j.j.j.j.j.j.j.j.j.j.j.j.j.i.i.j.d.6.Z = X # @ . 3 _ r.j.s.j.j.j.j.j.j.j.j.j.j.j.j.j.j.j.j.j.j.j.j.",
"j.j.j.j.j.j.j.j.j.j.j.j.j.j.j.j.j.j.j.j.j.j.j.j.j.j.j.i.i.j.s.j.i.4.Z $ X @ 7 ` r.j.d.j.s.h.j.j.j.j.j.j.j.j.j.j.j.j.j.j.j.j.j.j.",
"j.j.j.j.j.j.j.j.j.j.j.j.j.j.j.j.j.j.j.j.j.j.j.j.j.j.j.s.j.j.j.j.s.s.9.S $ 6 [ y.h.h.j.d.j.j.j.j.j.j.j.j.j.j.j.j.j.j.j.j.j.j.j.j.",
"j.j.j.j.j.j.j.j.j.j.j.j.j.j.j.j.j.j.j.j.j.j.j.j.j.j.s.j.j.j.h.h.h.i.s.4.W ] y.s.s.s.j.j.j.j.j.j.j.j.j.j.j.j.j.j.j.j.j.j.j.j.j.j.",
"j.j.j.j.j.j.j.j.j.j.j.j.j.j.j.j.j.j.j.j.j.j.j.j.j.j.j.j.j.j.j.h.j.j.s.j.j.j.0.s.j.s.j.j.j.j.j.j.j.j.j.j.j.j.j.j.j.j.j.j.j.j.j.j.",
"j.j.j.j.j.j.j.j.j.j.j.j.j.j.j.j.j.j.j.j.j.j.j.j.j.j.j.j.j.j.j.j.j.j.j.j.j.j.j.j.j.j.j.j.j.j.j.j.j.j.j.j.j.j.j.j.j.j.j.j.j.j.j.j.",
"j.j.j.j.j.j.j.j.j.j.j.j.j.j.j.j.j.j.j.j.j.j.j.j.j.j.j.j.j.j.j.j.j.j.j.j.j.j.j.j.j.j.j.j.j.j.j.j.j.j.j.j.j.j.j.j.j.j.j.j.j.j.j.j."
};
