/* XPM */
static char *cc63f1d0a71946c2bfe058ba70f3e5bf5HzDcWCn5slmON96[] = {
/* columns rows colors chars-per-pixel */
"64 64 93 2 ",
"   c #000100",
".  c #000201",
"X  c #010302",
"o  c #020403",
"O  c #030504",
"+  c #040605",
"@  c #050706",
"#  c #060807",
"$  c #070908",
"%  c #080A09",
"&  c #090B0A",
"*  c #0A0C0B",
"=  c #0B0D0C",
"-  c #0C0E0D",
";  c #0D0F0E",
":  c #0E100F",
">  c #0F1110",
",  c #101211",
"<  c #111312",
"1  c #121413",
"2  c #131514",
"3  c #141615",
"4  c #151716",
"5  c #161817",
"6  c #171918",
"7  c #181A19",
"8  c #191B1A",
"9  c #1A1C1B",
"0  c #1B1D1C",
"q  c #1C1E1D",
"w  c #1D1F1E",
"e  c #1E201F",
"r  c #1F2120",
"t  c #202221",
"y  c #212322",
"u  c #222423",
"i  c #232524",
"p  c #242625",
"a  c #252726",
"s  c #262827",
"d  c #272928",
"f  c #282A29",
"g  c #292B2A",
"h  c #2A2C2B",
"j  c #2B2D2C",
"k  c #2C2E2D",
"l  c #2D2F2E",
"z  c #2E302F",
"x  c #2F3130",
"c  c #303231",
"v  c #313332",
"b  c #323433",
"n  c #333534",
"m  c #343635",
"M  c #353736",
"N  c #363837",
"B  c #373938",
"V  c #383A39",
"C  c #393B3A",
"Z  c #3A3C3B",
"A  c #3B3D3C",
"S  c #3C3E3D",
"D  c #3D3F3E",
"F  c #3E403F",
"G  c #3F4140",
"H  c #404241",
"J  c #414342",
"K  c #424443",
"L  c #434544",
"P  c #444645",
"I  c #454746",
"U  c #474948",
"Y  c #484A49",
"T  c #494B4A",
"R  c #4A4C4B",
"E  c #4B4D4C",
"W  c #4C4E4D",
"Q  c #4D4F4E",
"!  c #4E504F",
"~  c #505251",
"^  c #535554",
"/  c #545655",
"(  c #555756",
")  c #585A59",
"_  c #595B5A",
"`  c #5C5E5D",
"'  c #5F6160",
"]  c #606261",
"[  c #676968",
"{  c #6C6E6D",
"}  c #707271",
"|  c #7D7F7E",
" . c #848685",
/* pixels */
"r . + Z 9 O * % + < < + % = . # % O + = O 1 % . + % # * > . 9 U . * + . i u . 1 > < > 1 . # % # # # . > O O s 9 # < # . C C O v ",
". 3 9 . = . . 3 9 + . 3 < . = 1 f O O 1 > q > y O % 6 1 + # O % 6 O = u O O e > 9 * = 3 y * + % % = # O = # . = + = = y . = 9 * ",
"< = < % # < . = 9 = = 3 * . % > > + u % O 3 = 3 % 9 O 9 = 9 f O > K * # + + . # # + # + 3 # * 6 . . * % . + % * # . > i * . e . ",
"6 . = s . O $ + . O 9 < = < % y * # v 1 6 . # > < * * 9 * 9 # . # # . S < # > * + * % = O * > q # z 6 * 6 * % . } e . . > % . > ",
"q < . + e = 6 O # . < 9 % . # # + . . . 9 9 9 . > f # e # . # 1 = # . 6 O z s * y > = s 6 < = 1 . u # # i 9 > + i 3 # # . ' h . ",
". i % < q O 3 y + + O s = < W 3 + n u 6 . < > . 3 3 > . . 6 > n s # O O . 9 % + + . + + # . * # * # > % O O O > + . . 1 . s 1 # ",
"+ > . q 1 * = 3 . = + = . # n . O * . > < 3 # % . O O + + * + % O # s * O O . # + 3 1 . 6 6 q e . 6 > . % * * b . > = . * . . * ",
"% = < = 3 + < 9 + 3 3 + + + . 6 + = 3 . * % % < = . u 9 # # . 3 b . % O * O 1 s = q . O y e . % . u > # # > q . # 9 6 . + < + # ",
"O > i . + v % . 3 1 3 q u . 6 9 O # # 3 > = q _ + * < 1 9 > * > 6 . 9 G O O # 6 % . O + O < y . 9 * O % 3 > 3 # + * 1 % + = % # ",
"e 3 . # < q . 1 O 3 % % % > 9 + % # O s = * # = O % . . 1 . > 9 3 # > 9 > O + * * # y * = * + * 1 O . * = . > 9 = O > + # 3 O + ",
". * % # O * u < < 1 O % * % * . 9 . # # 9 . # O * . s ( . < O > 6 . u > . * 9 > 9 = b . z O . # y 1 # O = * 3 + k % > . * e = e ",
"% + . = < . 1 . e > > < q . % % y * 1 . s > = k . # = v # . # 6 * > n 6 # q n . . * . + 9 < + # > # # # # . # . > . . % 1 6 % 6 ",
"# . 1 ^ * = # O > > 6 % 6 * 3 # . 1 O * > * . > i . O . > e > h < 1 . # * . 6 O . > . < + 1 * # . % > # < 3 u = 9 = * 9 6 + O * ",
"O O . 9 . i > + % = * % > 6 < . # i # 9 # * h O 6 * + q * 1 > * > . 1 = . 9 % > u * u % 1 9 1 O % # . . > 9 e O # % . * * . 3 y ",
"q n O . > # . R > % % = = > # + * 6 > = O O n % . % s + 6 1 . q . # _ u O ~ i + 1 . # % + e > 1 y % * e q . % 9 6 9 9 9 > + * > ",
"* > # k O . * e % # 6 + = O * # . # 3 6 O % . # > O % > . e > . % . # O . + . * # % % % # . # 1 * 1 1 # * > 9 . + O % . . % > 9 ",
"6 # 1 > * = . . = . h 3 . + O % O Z . * . % = O e 1 3 * = O 3 . * # O 9 1 O O # % . P 1 + + e # < s . # * 9 3 O 9 . S > O + # . ",
"O u 9 . h . h n % 9 + O 9 9 O + 9 M # # . * . * O = = * 6 > . 6 M # O 1 + % e . % 3 O # . h 1 % > % # 3 . 6 . % q = 1 O v # 6 h ",
"> . > 6 O * < O + 9 % < 1 1 * 1 . . > h < 9 O < 9 . 3 1 . # + # * * . 3 9 . k + > * . O q + O . 3 * y . * + O O * 1 . 3 % O 9 . ",
"b . 1 # . s > 3 * . % > # > . 1 1 * O * % 9 O z O 9 < . b s 1 * . * q * 1 . * 6 . + % e = > = * 9 = . 6 z * + f * . . O % s . % ",
"# > O = # O % # O % 6 + = % O 6 y O # e * 6 = O . C C O s * . h 1 1 = # 9 . < . # y % < . K e O . 1 > > * # < 6 . 9 6 . * + q q ",
"1 i . * 6 O > % . 9 q > + . y > + > . * = > + > q . % . . 3 6 9 = % u # 3 1 . 3 . h b O # 1 # + Z O % O 9 < 9 . . ^ h O > . v e ",
"O 1 1 O R e # > + * . % . + q . O O * 3 + + # # 3 > . > * % 9 * h y . . y e < > + > O O q > # # . # # * 3 # * * 1 . # # . 9 + . ",
"# . 1 = O # % 1 . < O + * + . e < + # * 6 9 . O . b # q k . ( M O . 3 i + . < % + . O * > . h y . > . e | * # * * 9 < . 1 % # # ",
"6 f . h < . 6 * y % % + 6 * # 9 # O # 9 1 6 O G % O * O < % . 9 s . # 9 O O > . # k * . 6 > # > 1 . > 9 n # < . # > % # ] # 1 9 ",
"+ > O 9 % = b . + # < > s + 9 * q + # = # . 1 9 u v . * < # # O 1 O 6 * = z H O 1 < % k 1 # # 6 = * 6 O + . # . O * > O # 1 3 e ",
"= . # . + # O 9 3 + # = + # % # S # = . + = % . # . = * % 6 1 + . 1 i * + = 9 O * # + 3 . * 6 = 9 q # y 1 . > % O > v = # O 1 O ",
"O 6 O h * h > O # u O + ( # < 6 . = < 1 3 * # + . y 1 O = # > e O * . O 9 = . # . % > # = # 1 u . O * > O 9 # % 1 < . % 6 * > . ",
". O 1 # # # * z % . % + v % . O = . 9 + 6 k . = * * O O # 3 = = O . O . 9 % # = < 9 > . 9 > O * # # . u 6 . 6 f > > O < = + * * ",
"K e . ! # % 1 . 1 z . > . O = * 9 < 9 * * + < * . 6 S # s * . 6 C % 3 > f > q . % > # % q q . . O # 1 + . # # + . O v y . = # O ",
"9 1 + 1 . 9 q 6 1 . s > . % i % > . O # q 6 O . + # % . u + H + 9 + > * = . % < 9 O . # # . 6 { > # . 9 6 . # O # + + > O b = + ",
"# * % + < . + 1 % + y = q % 3 O 9 C . 9 i > . > . s q s . + k * % e . # 9 h 3 b 9 1 6 + s + = R = O + s q 9 9 k 9 q * O h q > 1 ",
"9 = % . % % 9 e > e * . h * 1 * < # . 6 . O + # 9 6 S i . > . # u y = # { < 6 u # % < . 9 + 9 v . b e . + 3 z = # * . % e 3 * < ",
"# # O > > . > % 1 % 1 % v > . k . < O % P * 9 < 9 . % . * + * . i . # % % % * . > . = < * # 9 6 + q = 3 = # . . q = 1 9 . + + % ",
"* . 3 # + 1 > # % . * # . = * # + K q . e % = % . % O < = % = # % O . < O s . e 6 O . 9 # > # % . # . 9 * u G + 1 . + < s = < O ",
"M % 9 + O 6 > % # 6  .6 + # z h . 9 < 6 . = . i % y # 3 # = % > . * * u = s % i > e = i % = . i 3 . 6 = O h R + * > 6 1 . * . 3 ",
"z 1 . < < . e > . 9 e + < . * % < O # 6 # * # e * < 3 > % . 6 W # q 1 O . . = . # > . . * 3 O O 6 O u # O % . # + . ` e + 1 * . ",
"# % % < * . e * = . > + u % . * 9 e * = > . + O 9 = % % * < . * % . < 1 3 * ( e . < v # * * f # O 9 * < O # 1 + # . # * + > > O ",
"O % i % O * # O * % O e # * * O . % + q q O . > . < 1 i > v = 6 1 + % O 9 . * # O = u # # * e O % k O 6 # 1 C O 6 1 . > Z O 1 * ",
"* . # % * . * e O . 1 # < * + % 6 * s . O * 1 * 1 % + # . + O 3 q . = # + q % # % 6 O * . * . = < + # = e = # * z + * . > 1 # O ",
". k k . # O 1 1 > S O # y s O . . O % # > 1 % 3 i % + 9 n O # % h + # u 9 . U G . 1 # . * O s n . 1 O . 1 O = + . = + 3 * . # M ",
"1 # = * + > # # * e % % + . % s 9 O + = . * % # 3 . * 9 v . k O . O * % O # 9 + % s * < . > * = # 1 O h y . 6 9 # * . e % > % = ",
"* < 3 < 1 z < u 3 . > ( = O O > * + f * # ~ f # e > # . . 1 O < * + < > 6 > . * * . 6 6 q z . 6 9 . . > = * > . . s > 9 + # + + ",
"O e 9 . . 1 . # = % O Z q * . * # < 1 * 1 % % = % = * . * + . 9 . . < * 9 = . O % 1 + % + . = h % 3 3 * 9 O M > # + 1 9 . 6 H . ",
"O + + % # > > # . . > . 3 O G 6 9 = # . . % # s > . = % . 3 . < s 9 O # O O 6 h % y . > + u * . > O q * q O % * # . > 1 < 1 n O ",
"+ * . O # . O + . > > . z O e 1 1 * . M 9 . # . % G % f . . 9 9 6 3 O h # # % 6 # * u * . s + i 9 6 . 1 9 . + . > 9 + O 6 O . * ",
"% 3 O > > # + P v O + 6 * O . . < > q > . % f n . 1 . . s 3 % + # e > 6 O 1 6 # + * * > e + * * = O # % . % > 1 e . # # # % > + ",
"G = + z * . O [ C . e 9 . = * * y O 9 > M . + * . * > u % # * M * # * % 9 O * * 1 y . O # # > > i O # < > > e . # . M > O O e * ",
"O # . * 3 9 % . . > < . < Y > O % * . # 6 . . % . * * * O * q ( < 9 1 # . O i h + 6 . 6 * > h = # 9 3 i h . 3 < . > # + S h . * ",
"O q e . < % . * > . 9 < + * . = < % n . 9 6 # . 9 b O # 6 . . . O % . . > b + * = . O O 6 u . > . # > + O > O % > . * . 1 . O * ",
". s b . # e = > . * O s s % 9 . O 1 y 1 9 = 6 q O = 1 = 3 6 6 # < * * 3 3 # . 6 y % 1 u # . C 9 6 * . O < . # * . < . = # y 6 1 ",
"* . = 3 % 3 * 1 e n . > > . > 9 n . . O . > > 1 O % e % . . > e z * O > * # > 1 * 3 . # > . = O q * . # % U = 1 3 y * * * 9 9 + ",
"O % > < . 1 6 . . * > O # z . # O 6 u # b * O O . y # 6 G = . . s . > q > h * h % # % P # # . + . % e 1 O s + 9 1 . + h . . < % ",
"> # O % 9 % < < i # q * * e . . > % . > < + S O * q < 1 9 . > G # 1 > . 3 y . . 1 6 . y > . M h * O > + i . % . q 9 6 P * > O % ",
"O # 1 O * > 3 # u O O s 9 . * M # O * * # # O > s . + * . > * > . K S . 1 O 6 O 3 6 e . % . S W . % 1 + # 3 * * O + O . # > % % ",
"3 # b Z . + % 3 O * . + * 6 O q # k 1 . Y q . < O * O 3 + # < . 1 O O + q * O 9 9 . * * 6 > . . O 6 . 1 < . 9 3 = O % 3 * y * O ",
"9 > = 6 = > > Y O * h O O O * * . = # . K f . C e . 9 6 % # 6 * 1 6 6 . O 3 e O % . < i % = + . 9 y . H C . % 1 1 . * . * . 3 i ",
"* % # . q f . * # . b * * # > 1 = 6 1 + . # . # * . = = # s . + # * > # # * 1 Y 3 . # 1 % < < 9 # > . > % < . q O # O y f + < * ",
"e . S % = O < y 6 1 O O k % e # . # 6 9 . * h 9 + O q s . 1 % # h O < 9 . # % u > < . q u + 6 # 9 3 q . 3 u . + * = + * * = * O ",
"O > = . + k > % . e 9 # % . C O # O 3 O * # k h . . % > O > n O % . # # # 9 3 > + . % > e * . # 9 > > . = % * + . = . 1 9 + q 1 ",
"% e * q 1 q + O * . . O h 9 . > . # u # 1 < # . O e 1 . = 3 M + * # 9 * . . 9 . s 9 . . 3 O * 1 . # % k . . # 1 1 < n * # % . O ",
"* # + * = . y * # < < O . 1 < . h = 1 > . 9 > 1 1 > 3 3 . + # . % e # . z . * 9 . + f > O # < ! O + q Z + = + = = = e + % . 3 e ",
"O C q O O # # < O f = O = . > > u # # y . = # 3 h . # M = e > * 9 > % > f < 3 + * 1 * 3 = + . O 6 . * . O # # * h O = q u O . h ",
"% O O * 1 . q ^ . * * + y 3 9 = . * % 1 O + + % . > + s + = # O + . 9 < . # q + . > % 1 % % * = i e + # * % O * 9 = . O # # # + "
};
