/* XPM */
static char *e05aabd2bafd4828e1a83c1546989322BMfYWR2MMm5u5Kxz[] = {
/* columns rows colors chars-per-pixel */
"64 64 208 2 ",
"   c #2C0403",
".  c #2F0803",
"X  c #320603",
"o  c #350903",
"O  c #3B0A03",
"+  c #3F1907",
"@  c #480E03",
"#  c #540F02",
"$  c #451505",
"%  c #471A06",
"&  c #551203",
"*  c #5C1403",
"=  c #511E06",
"-  c #5E1A04",
";  c #631603",
":  c #661903",
">  c #6A1C04",
",  c #4E2407",
"<  c #452309",
"1  c #48240A",
"2  c #532B09",
"3  c #5A2A08",
"4  c #55340D",
"5  c #59330C",
"6  c #5A3A0E",
"7  c #632206",
"8  c #6C2306",
"9  c #742606",
"0  c #752A06",
"q  c #7A2C07",
"w  c #732C09",
"e  c #7C2E08",
"r  c #783107",
"t  c #753209",
"y  c #7B3509",
"u  c #7E3A0B",
"i  c #6D3613",
"p  c #77361D",
"a  c #6F4E12",
"s  c #823709",
"d  c #86390A",
"f  c #893B0A",
"g  c #86460E",
"h  c #8D420C",
"j  c #93460C",
"k  c #95490D",
"l  c #9A4C0D",
"z  c #9E510E",
"x  c #854911",
"c  c #8E5210",
"v  c #9F5311",
"b  c #A0540E",
"n  c #A45A0F",
"m  c #A55C10",
"M  c #B36E0F",
"N  c #A86110",
"B  c #AE6811",
"V  c #B16C12",
"C  c #AD7515",
"Z  c #B47213",
"A  c #B47817",
"S  c #BA7D15",
"D  c #8B5123",
"F  c #A66325",
"G  c #B57E24",
"H  c #B1762B",
"J  c #B77B28",
"K  c #B87E2B",
"L  c #AF763B",
"P  c #B58215",
"I  c #BE8115",
"U  c #BE8916",
"Y  c #BA821A",
"T  c #BB8C19",
"R  c #BD921D",
"E  c #B78027",
"W  c #B19924",
"Q  c #B9863C",
"!  c #B4A728",
"~  c #C18515",
"^  c #C58C16",
"/  c #C49217",
"(  c #CA9417",
")  c #CC9618",
"_  c #C69819",
"`  c #CD9C1A",
"'  c #D09B17",
"]  c #D19B19",
"[  c #CDA31D",
"{  c #D6A51A",
"}  c #D8A61A",
"|  c #D7AC1F",
" . c #DAAE1D",
".. c #D5B01F",
"X. c #DCB11E",
"o. c #C79726",
"O. c #CC9E25",
"+. c #C9962C",
"@. c #C69828",
"#. c #CB9D2C",
"$. c #C39430",
"%. c #CB9930",
"&. c #C6A927",
"*. c #CCA029",
"=. c #D5AC26",
"-. c #CCBB2B",
";. c #DEB621",
":. c #DFB922",
">. c #CFA234",
",. c #D4A832",
"<. c #D9AE32",
"1. c #DAB536",
"2. c #E0BA22",
"3. c #CBC32E",
"4. c #D6C62D",
"5. c #D3C731",
"6. c #DDD431",
"7. c #E2C125",
"8. c #E3CB2A",
"9. c #E6D22E",
"0. c #EDDC2F",
"q. c #E1C137",
"w. c #E2D532",
"e. c #E5DC34",
"r. c #EBDC32",
"t. c #E2DA3E",
"y. c #E5E134",
"u. c #EBE233",
"i. c #E5E23B",
"p. c #EBE539",
"a. c #EDEB3C",
"s. c #F0E532",
"d. c #F4ED36",
"f. c #F3EF3A",
"g. c #F5F037",
"h. c #F6F43A",
"j. c #F8F73A",
"k. c #F9F93B",
"l. c #BB8842",
"z. c #D6AE44",
"x. c #D9CA42",
"c. c #DFDC49",
"v. c #E5DC43",
"b. c #E4DF49",
"n. c #E8E346",
"m. c #EBE941",
"M. c #F3EE46",
"N. c #F3EE4C",
"B. c #EEF144",
"V. c #F5F447",
"C. c #F8F941",
"Z. c #F5F34B",
"A. c #F7F94C",
"S. c #F8FA4C",
"D. c #ECE859",
"F. c #F7F952",
"G. c #F7FA54",
"H. c #F6F95C",
"J. c #CFD97E",
"K. c #D2DE7D",
"L. c #DAED71",
"P. c #DFFD7E",
"I. c #F6FA64",
"U. c #E2FD76",
"Y. c #E0FF7E",
"T. c #F5FA76",
"R. c #CADB8C",
"E. c #D6D38E",
"W. c #D3E68B",
"Q. c #CFED9B",
"!. c #D3F29C",
"~. c #E4FE82",
"^. c #E2FF8A",
"/. c #EFF39D",
"(. c #F3FC9F",
"). c #D8D1A7",
"_. c #DEDDBA",
"`. c #D2EDA3",
"'. c #D6F2A4",
"]. c #D7FFB6",
"[. c #D8FFB6",
"{. c #D9FFB9",
"}. c #E5E6AC",
"|. c #EEF3AE",
" X c #F4FEA1",
".X c #F2FDAE",
"XX c #E6EABB",
"oX c #EEF5BE",
"OX c #F2FEB1",
"+X c #F1FDBF",
"@X c #EAEDC1",
"#X c #E4EECC",
"$X c #E7F3CB",
"%X c #E9F5CD",
"&X c #F1FDC2",
"*X c #F1FECA",
"=X c #E7EDD3",
"-X c #ECF4D3",
";X c #EBFFD3",
":X c #ECFFDE",
">X c #F0FED5",
",X c #F0FEDC",
"<X c #EDFFE2",
"1X c #ECFFE5",
"2X c #EEFDEA",
"3X c #EFFFEA",
"4X c #EFFFEC",
"5X c #F0FFEE",
/* pixels */
"{ ] { } } ] { } { ] } } { ] } } } ' } } } ' } } ] ' ] } } ] } } { ' } } { ] } } } ' } } ] ] ] } } ' ] } } ' } } { ' } } { ] } } ",
"' Z ' } ] Z ] } ] Z ] } ' Z ] } { Z ' } ] Z ] } ] S ] } ] A ] } ] Z ] } ] Z ] } } Z ] } ] Z ] } ] S ] } ] Z ' } ' Z ] } ] Z ] { ",
"<.,.<.<.<.,.<.{ ] ' ] { ] ' ' { ] ] ' { ] ] ] } ] ' ] } ] ] ' { ] ' ] } ] ' ] { ] ] ] } ] ' ] } ] ] ] } <.,.<.<.<.,.=.{ ] ' ] { ",
"-X-X-X-X-X-XXXz.Z ' Z ) Z ) Z ) Z ) Z ) Z ' Z ) Z ' Z ) Z ) Z ) Z ' Z ) Z ) Z ) Z ) Z ) S ) Z ' A ) Z 1.XX*X%X%X%X$X!.<.G ] Z ] ",
"5X5X4X4X4X4X3X@Xz.<.,.<.] ] ] ] ' ' ' ' ] ' ] ] ] ] ] ] =.} { =.| } ] ] ] ] ' ] ] ] ' ] ] ] ] ] ] ' *.E.!.`.'.`.'.`.Q.W.K.=.] ) ",
"3X5X4X3X4X4X3X3X-X-X-X@Xz.E >.E >.K >.J ) Z ) Z ) S ] ~ t.h.f.f.f.p.;.S ) Z ] Z ) Z ) Z ) Z ) Z ] Z ] J *.E O.G *.E #.G O.Z ) V ",
"<X1X1X<X1X1X1X1X1X1X1X1X-X#X%X#X%X#X$XXX1.] ] ' ' =.s.m.U.Y.Y.Y.~.U.M.r.2.] ' ] ] ] ' ) ] ] ' ` ] ] ] ] ' ' ' ' ' ' ] ' ' ) ] ] ",
"'.`.'.`.'.`.'.`.'.`.'.`.'.`.'.'.'.`.`.Q.W.#.Z ( I v.U.^.;X:X:X:X:X;X^.U.m. .Z ^ V ( Z ( Z ( Z ^ Z ^ Z ^ Z ( Z ^ Z ( V ( Z ( Z ( ",
"O.G @.G @.G @.G +.G o.G o.G o.G @.G @.G o.Z ~ Y t.~.;X<X3X4X4X4X4X3X<X;X~.a.{ Z U Z ~ Z ~ Z ~ Z ~ Z ~ V ~ Z ~ V ~ V ^ V ~ V ~ B ",
"B ~ V ~ V ~ Z ~ M ~ V ~ Z ~ Z ~ V ~ Z ~ Z ~ E 6.^.;X3X4X3X4X3X3X4X3X4X3X;X~.n.) V ~ V U Z ~ Z ~ Z ~ V ~ V ~ Z ~ Z ~ Z +.K %.K %.",
"^ Z ~ Z ~ Z ~ V ~ Z ~ Z ~ V ~ Z I Z ~ Z ~ A e.U.;X5X3X3X3X4X3X4X4X3X3X3X3X;XL.G ~ Z ~ Z ~ Z ~ Z ~ Z ~ J #.K %.H ~ M +.XX=X-X=X-X",
"V ~ Z ~ Z ~ Z ~ Z ~ Z ~ Z ~ Z ~ Z ~ Z ~ Z { B.^.:X3X4X3X4X3X4X3X3X4X3X4X3X<X^.t.Y ~ Z ~ V ~ Z I Z +.l._.-X=X-X_.l.+.l.=X5X5X5X5X",
"^ Z ~ V ~ Z ~ Z ~ Z ~ Z ~ Z ~ Z ~ Z ~ Z ) p.U.;X5X3X3X3X4X3X4X3X3X4X3X4X3X3X;XU.e.A ~ Z ~ Z U J z.XX=X3X4X4X1X1X#X$X#X<X<X<X1X1X",
"V ~ Z ~ Z ~ Z ~ Z ~ Z ~ Z ~ Z ~ V ~ Z ~ S a.Y.:X3X3X3X3X3X3X3X4X4X3X3X4X4X4X:XP.f.) V ~ Z @.Q _.-X<X1X3X1X:X{.].[.{.[.[.[.[.[.[.",
"^ Z ~ Z ~ Z ~ Z ~ Z ~ Z U M ~ J %.K $.A ) a.Y.:X4X4X4X3X3X4X3X3X3X3X4X3X3X4X:XP.p.S ~ Z o.K.R.'.`.'.`.'.`.'.Q.!.Q.!.Q.!.Q.!.Q.!.",
"V ~ Z ~ Z ~ Z ~ V ~ Z o.G o.Q _.%X#XXX>.S a.Y.:X4X3X3X4X4X3X4X4X4X3X3X4X3X4X:XP.m.` V ~ Z +.E o.G @.G @.G @.G o.J @.G o.G o.G #.",
"^ V ~ Z ~ Z ~ Z ~ Z o.K.E.W.R.'.`.'.`.K.*.p.U.;X5X3X3X3X3X3X4X3X1X5X1X5X5X5X>XU.t.S ~ Z ~ M ~ Z ~ Z ~ V ~ V ~ V ~ Z ~ V ~ Z ~ M ",
"V ~ Z ~ Z ~ Z ~ Z ~ Z +.G o.E o.E o.G o.A | B.^.:X3X3X3X3X4X3X4X5X5X5X5X5X<X~.t.S ~ Z ~ Z ~ Z ~ V ~ Z ~ Z ~ Z ~ Z ~ Z ~ Z ~ V ~ ",
"^ Z ~ V ~ Z ~ Z ~ Z ~ Z I Z I M U M ~ Z ~ A w.U.;X5X3X4X3X4X3X3X5X1X5X1X1X;XL.G ~ Z ~ Z I Z ~ Z ~ Z ~ Z ~ Z ~ Z ~ Z ~ Z ~ Z ~ V ",
"V ~ Z ~ Z ~ Z ~ Z ~ Z ~ Z ~ Z ~ V ~ Z ~ Z ~ Y t.^.;X3X3X4X3X4X3X5X5X5X5X;X~.n.) Z I Z ~ Z ~ Z ~ Z ~ Z ~ Z ~ Z ~ Z ~ Z ~ Z ~ Z ^ ",
"^ Z ~ Z ~ Z ~ Z ~ Z ~ Z ~ Z ~ Z ~ Z ~ Z ~ Z ~ Y v.~.;X<X5X5X5X5X5X1X,X;X~.a.{ Z ~ Z ~ Z ~ Z ~ Z ~ Z ~ Z ~ Z ~ Z ~ Z ~ Z ~ Z ~ V ",
"V ~ Z ~ Z ~ Z ~ Z ~ Z ~ Z ~ Z ~ Z ~ Z ~ Z ~ Z ~ S t.U.^.;X:X:X:X:X;X^.U.M.] V ~ Z ~ Z ~ Z ~ Z ~ Z ~ V ~ V ^ V ~ Z ~ Z ~ Z ~ Z ^ ",
"^ B I B I B ~ B ~ B ~ B ~ B ~ B ~ B ~ B ~ B ~ B ~ A t.n.L.Y.Y.Y.Y.U.m.t.=.B ~ B ~ B I B ~ B ~ B ~ B ~ B ~ B ~ B ~ B ~ B ~ B ~ m ",
"m n m n m m n m n n n n n n n m n n n n n n n n m m N B C e.m.f.a.e.A V m n n n n m n n n n n m m n n n m m n n n n m m n m m m ",
"n I m I m ~ m ~ m ~ m ~ m ~ m ~ m ~ m ~ N ~ m ~ m I m ~ N ) Z ) A ( N I m ~ m ~ m ~ m ~ m ~ N ~ m ~ m ~ m ~ m ~ m ~ N ~ m ~ m ^ ",
"n n m m m m m m m m m m m m m m m m n n m m m m m m m n n n n n n m n m m m m m m n m m m m m m m m m m m m m m m n m m m m m m ",
"^ m I m I m ~ m ~ m ~ m ~ m ~ N ~ m ~ m I m ~ m ~ m ~ m ~ m ~ N S m ~ N ~ N ~ m ~ m ~ N ~ m I m ~ m I m ~ m ~ m ~ m ~ m ~ m ~ n ",
"m m m n n m n b m m m b n n n b n n n n n m n b n m n b n n n z n m n b n m n b n n n b n n n b m m n b n m n b n n n z n m n z ",
"m I n l n I n z n I n z n I n l n I n z n I n z n ~ n z n I n z n I n z b S n l n ~ b z b ~ n z m ~ n l n ~ b z b ~ n z n I n l ",
"v n z v z n z z z n b z z n z z z n z z z n z z z n z z z n z z z n z z b m b b z n z z z n z z z n z z z n z z z n z z z n b z ",
"z v z v z z z z z z z z l z z z l b z z z z z l z z z z l z z z l z z z z z z z z z z z z z z z z z z z z z z z z z z z z z z z ",
"n n n n n n n n n n n n m n n n n n n n n n n n n n n n n n n n n n n n n n n n n n n n n n n n n m n n m n n m n n n l n m n n ",
"' U U ^ ' ] ] ] ] ] ] ) ] { { { { { { { { | { { { [ { { { { { { { { { { { { =.{ } { { { [ { { { ' ' ] ] ] ] ` ] ] ' S r P ' ' ` ",
"P 2 % y ^ } } { } } } }  .r.s.s.s.u.d.d.u.s.u.u.s.d.d.V.f.N.Z.N.N.N.Z.N.Z.f.d.s.s.d.d.u.s.s.s.0.X.{ { { { { } { { ) r @ t ( } } ",
"+ o # * r P / ) { { } { }  . . .;.;.7.d.7.2.:.:.7.h.A.(.H.OX>X>X>X>X>X&X.XS.k.d.8.s.7.X.X.X.4.2.X. .X. .X.X.} { } ) 8 & = U ] ( ",
"X @ @ * * % % r ~ { { } { } } } } r.u.d.s.s.d.g.d.k.F.I.G.T.,X5X5X5X,XT.I.C.S.k.g.k.g.s.d.s.s.s.s.s.s.s.s.0. .{ } ) w O 7 z z y ",
"X O & * O o # ; y ) { { } }  . .;.;.:.:.:.7.h.k.k.A..X&X+X&X1X5X3X3X5X&X.XH. XA.k.k.f.4.7.X.7.X.X.7.2.:.X. .} } { ) k $ h k r f ",
"X # O & O @ @ * 9 ) } { }  .0.s.s.s.s.s.d.s.g.h.g.k.A.G.I.T.,X5X3X5X,XT.H.C.Z.f.d.6.d.d.s.s.s.s.s.s.s.0. .} } ] ^ N h = h z h 0 ",
". o o & X O & ; 0 ^ ' { } X.2.2.2.2.;.7.s.7.7.s.7.g.h.A..X&X;X3X4X3X;X&X.XS.d.7.[ a ..d.7.X.X.7.X.X.7.2.] ` ) n s j e f e k e j ",
"O * O - $ # O * > h y U } 0.s.s.s.d.d.f.h.g.g.G.Z.A.k.k.I.I.T.,X4X,XT.I.I.F.h.V.6.4 -.k.g.g.d.g.g.0.0.4.B n n l k z l l l l l l ",
"8 y $ g h $ o ; > - @ t _ ;. . .;.s.g.g.j.g.S..X&XOXV.A..X+X&X>X>X>X&X+X&X.XH. Xc.1 4 5.k.k.k.k.f.T A A B N N m n n n n n n n N ",
"h 8 $ k z g $ h j $ # 8 %.<.=. .X.2.X.=.s.8.h.H.I.I.G.F.I.I.I.I.I.I.I.I.G.B.i.A.6.<   4 3.g.g.k.f.r.r.e.e.r.9.{ ] ] ' ^ ^ ^ ' ` ",
"0 y $ h z j % j l : O p ).}.D.M.g.d.-.c 4.d.A..X&X&X+X&X>X>X>X>X&X&X&XOXS.y.a i.y.< < < a y.8.d.2.7.d.7.:.:.2.X.X.X.U y 8 y U { ",
"f 9 @ 8 k j , j z f $ j F L }.}.N.v.x ; x u.C.H.G.I.I.T.,X4X4X,XI.Z.b.c.i.3.4 3.3.4 ! 3.3.6.6.g.d.f.h.g.g.g.g.s.s.8.u : * * 3 / ",
"0 d 9 d q h k l v l * j z v F F F E.p O t 6.V. XH.OX&X+X>X>X>X+XA.y.a 6 < < . < < . < < < 6 a e.d.f.j.d.d.g.s.X.X.` 9 * O O 7 / ",
"f q f q f r h q f l j l l z l v v F g = h C w.A.k.A.F.I.G.I.I.I.F.Z.n.3.4           . + 6 3.6.4.2.7.d.7.2.2.:. .' / 9 * O @ , ^ ",
"q f q f q d q f s f s f s f s f v k z j l l Z w.h.k.A.(.H..X&X>X>X&X.XS.3.4 < < < < 4 3.y.k.k.f.d.g.h.g.d.s.s.4.g C 9 * o O 7 / ",
"f 9 d 9 d 9 d 9 d 9 s 9 d 9 d 9 f 9 f q f 9 j B w.h.k.A.k.A.I.*X,XT.I.F.F.n.c.c.c.c.c.G.k.C.A.k.k.y.d.d.s.2.] u * % 8 8 O 3 7 / ",
"q 9 q 9 0 0 0 0 0 0 0 0 w 0 q 9 q 0 0 9 0 0 r e c e.d.d.d.g.k.H.&X&X&X&X&X&X+X+X&XoXoX}.M.M./.M.5.a T ...._ ( r O , U P , P _ { ",
"( ( ) / ( ( ( ( ` ' [ ` ` ` [ ` ` ` ` [ ` ` ` ` [ X.2.2.2.2.g.h.A.F.A.A.S.S.S.S.Z.1.$.D ^ 2.<.W 2 . 1 P _ i _ R 2 P } / 2 ( } { ",
"} { } X.X.X.X.2.s.g.g.g.g.g.d.g.g.g.d.d.g.g.V.g.Z.N.N.N.N.Z.F.Z.F.A.G.S.S.C.j.j.k.v.u * 5 w.w.4     . 4 -.6 -.-.5 P ) P 2 P ( ( ",
"{ { | 0.s.s.s.s.g.d.g.d.d.d.g.h.g.d.d.d.g.A./.D.|.oX+X+X&X>X>X>X&X&X&X&X}.A.j.g.Z.E.p & % 6.6.<     X < &.y y r 7 0 0 0 : 0 0 r ",
"} { }  . .X. .X.2.2.:.:.:.X.7.d.7.2.2.2.7.d.1.:.1.q.Z.F.T.,X4X,XT.F.N.x.D 6.u.2.;.#.y @ ; ) ^ $ X O - 7 y k k l l f 9 s 9 d 9 f ",
"{ } { } { { } } 0.s.u.s.u.g.g.A.N.f.d.N.N.F.Z.N.N.Z.A.I.&X5X4X3XOXM.=.s * 5 &.X.X.=.C , B M s > ; 8 j l k z b l j q f q f q f 0 ",
"{ } { { } { { }  .X.X. .:.s.V.|.OXA.S.OX&X+X&X&X+X+X+X&X>X>X,X*XH.j.r.a O 5 -.w.9.4.f > s s j l k l z z b b l k q f q f q f q f ",
"} { } { { } { } { } {  .X.:.:.1.1.h.S.I.I.I.I.I.I.I.I.I.I.F.S.S.G.A.r.&.6 W x y y u k k l l l z z z z z l l k e f q d q f q f q ",
"{ { { { { } { } } {  .0.s.s.s.s.d.V.OX+X+X+X&X>X>X>X;X*XOXA.r.v.}.).D e 8 u k k j l z z z z l z z j l f s f q f q f q d q f q f ",
"{ } { { { { } { } { }  . .X.X.2.g.j.I.I.I.I.I.*X,X,X&XD.v.5.j s p p k k k k l z z l z z l z l j f s f s d q f q d q f q f q d q ",
"} { { } } { } { { } { } }  .;.s.j.I.&X,X>XOXA.S.n.b.x.x y d f l l l b b l l z l l l l f s d s d s f s s q d q f q f q f q f q f ",
"{ { { { { } } } } { { } ;.s.g.k.S.OX>X,X&XD.e.4.x y d k k k l z l l l l j s f e f s f s d s d s d s d q s s d q f q d q f q d q ",
"} } { } } { { }  . .:.s.g.k.k.k.C.A.n.b.x.g y e k j j l l f s f s f s f q f q f s s > s s s s s s s s s q f q f q d q d q f q f ",
"{ { } } X.X. .X.s.g.g.k.k.k.h.u.r.4.x y 0 8 f 9 f s f q f s f s f 9 f q f q f q s s d s s s s s s s s s f q f q f q f q d q f q ",
"{ { } } 0.u.d.g.k.k.k.y.e.r.4.g q 0 > d 8 f 9 f 9 f 9 f 9 d 9 d 9 d 9 f 9 f 9 f s s s s ; d s s s d > s 9 d 9 f 9 d q d q d 9 f ",
"} { } } X.:.g.k.k.k.y.x t y t : ; ; ; > ; > ; > : > : > : > : > ; > : > ; > ; > ; ; ; s ; ; ; ; ; > ; ; > > ; > ; > ; > ; > : > "
};
