/* XPM */
static char *_aac890ed4954748e7e1fd4369e81d61uIyP25woqji9vSV0[] = {
/* columns rows colors chars-per-pixel */
"64 64 136 2 ",
"   c #E85F3F",
".  c #DD6636",
"X  c #DA6836",
"o  c #D6663C",
"O  c #DC653B",
"+  c #D5683B",
"@  c #DA683A",
"#  c #E16436",
"$  c #E1633C",
"%  c #CC6C4B",
"&  c #D56643",
"*  c #DC6442",
"=  c #D66B44",
"-  c #D96945",
";  c #DC664C",
":  c #D56C4B",
">  c #DB6B4B",
",  c #D67247",
"<  c #D97144",
"1  c #D5714B",
"2  c #D9734D",
"3  c #DB6751",
"4  c #D86A50",
"5  c #CB7351",
"6  c #D67051",
"7  c #DA7353",
"8  c #D67B56",
"9  c #DD7B54",
"0  c #D67458",
"q  c #DB775C",
"w  c #D57D5A",
"e  c #DA7C5A",
"r  c #E26141",
"t  c #DB7E64",
"y  c #D6825D",
"u  c #DB815C",
"i  c #CE8464",
"p  c #DC8364",
"a  c #DF8867",
"s  c #DC8569",
"d  c #D78B69",
"f  c #DC8A6B",
"g  c #DC8E72",
"h  c #DE9574",
"j  c #DD9C76",
"k  c #DE957B",
"l  c #DF9978",
"z  c #E28567",
"x  c #E08967",
"c  c #E1836C",
"v  c #E18B6C",
"b  c #E38673",
"n  c #E38B74",
"m  c #E58E7B",
"M  c #E19171",
"N  c #E3937A",
"B  c #E2997D",
"V  c #DE9C83",
"C  c #DF9A89",
"Z  c #E39681",
"A  c #E89584",
"S  c #E29A83",
"D  c #E39E8B",
"F  c #DEA284",
"G  c #DCA38B",
"H  c #DEAD95",
"J  c #E1A284",
"K  c #E2A38C",
"L  c #E4A98B",
"P  c #E4A493",
"I  c #E4AB93",
"U  c #E8AE90",
"Y  c #E5AB9A",
"T  c #E9AD9A",
"R  c #E5B39C",
"E  c #EAB49B",
"W  c #E8B89D",
"Q  c #E7B3A3",
"!  c #EAB6A4",
"~  c #E7BAA0",
"^  c #E9BBA4",
"/  c #EBBDAC",
"(  c #EBC2AD",
")  c #E5C0B0",
"_  c #EBC3B3",
"`  c #EEC9B6",
"'  c #EDC6BC",
"]  c #EACCBA",
"[  c #F2CAB7",
"{  c #F2CDBB",
"}  c #F0D2B3",
"|  c #F2D3BD",
" . c #E9CFC2",
".. c #F2D3C2",
"X. c #F3DAC5",
"o. c #F4D6CD",
"O. c #F5DBCC",
"+. c #F8DECD",
"@. c #F2D7D4",
"#. c #F5DDD3",
"$. c #F8DED8",
"%. c #F5E4CF",
"&. c #F5E3D3",
"*. c #F8E3D4",
"=. c #F7ECD6",
"-. c #F6E5DB",
";. c #F9E5DB",
":. c #F9EADD",
">. c #F5ECE5",
",. c #FAECE3",
"<. c #FBEEE9",
"1. c #FBF1E5",
"2. c #F6FAE5",
"3. c #F7F3EB",
"4. c #FBF3EB",
"5. c #FDF6EC",
"6. c #FCFBEC",
"7. c #FBF7F0",
"8. c #FCF5F3",
"9. c #F7FFF4",
"0. c #FAF9F2",
"q. c #FEF9F1",
"w. c #FBF9F6",
"e. c #FCFBF4",
"r. c #FFFCF5",
"t. c #FCF6F9",
"y. c #FDF6FE",
"u. c #F7FEFC",
"i. c #F9FBFA",
"p. c #FBFAFA",
"a. c #FCFBFB",
"s. c #FDFCFB",
"d. c #FFFEFB",
"f. c #FDFBFD",
"g. c #FBFFFD",
"h. c white",
/* pixels */
"h.h.h.h.h.h.h.h.h.h.h.h.h.h.h.h.h.h.h.h.h.h.h.h.h.h.h.h.h.h.h.h.h.h.h.h.h.h.h.h.h.h.h.h.h.h.h.h.h.h.h.h.h.h.h.h.h.h.h.h.h.h.h.h.",
"h.h.h.h.h.h.h.h.h.h.h.h.h.h.h.h.h.h.h.h.h.h.h.h.h.h.h.h.h.h.h.h.h.h.h.h.h.h.h.h.h.h.h.h.h.h.h.h.h.h.h.h.h.h.h.h.h.h.h.h.h.h.h.h.",
"h.h.h.h.h.h.h.h.h.h.h.h.h.h.h.h.h.h.h.h.h.h.h.h.h.h.h.h.h.h.h.h.h.h.h.h.h.h.h.h.h.h.h.h.h.h.h.h.h.h.h.h.h.h.h.h.h.h.h.h.h.h.h.h.",
"h.h.h.h.h.h.h.h.h.h.h.h.h.h.h.h.h.h.h.h.h.h.h.d.h.e.;.<.h.h.h.h.g.h.h.h.h.h.h.h.h.h.h.h.h.h.h.h.h.h.h.h.h.h.h.h.h.h.h.h.h.h.h.h.",
"h.h.h.h.h.h.h.h.h.h.h.h.h.h.h.h.h.h.h.g.f.f.h.h.q...t D :.h.h.f.u.h.f.h.f.h.h.h.h.h.h.h.h.h.h.h.h.h.h.h.h.h.h.h.h.h.h.h.h.h.h.h.",
"h.h.h.h.h.h.h.h.h.h.h.h.h.h.h.h.h.h.h.d.g.g.h.e. .t & + j -.p.h.f.h.h.h.h.h.h.h.h.h.h.h.h.h.h.h.h.h.h.h.h.h.h.h.h.h.h.h.h.h.h.h.",
"h.h.h.h.h.h.h.h.h.h.h.h.h.h.h.h.h.h.h.h.g.g.e.| t O $ @ = k ;.a.f.h.h.g.h.h.h.h.h.h.h.h.h.h.h.h.h.h.h.h.h.h.h.h.h.h.h.h.h.h.h.h.",
"h.h.h.h.h.h.h.h.h.h.h.h.h.h.h.h.h.h.h.h.a.8.} e $ O # $ * * k :.f.h.h.g.g.h.h.f.h.h.h.h.h.h.h.h.h.h.h.h.h.h.h.h.h.h.h.h.h.h.h.h.",
"h.h.h.h.h.h.h.h.h.h.h.h.h.h.h.h.h.h.h.h.d.&.i + X O O O $ r & k ;.d.d.d.g.h.h.f.h.h.h.h.h.h.h.h.h.h.h.h.h.h.h.h.h.h.h.h.h.h.h.h.",
"h.h.h.h.h.h.h.h.h.h.h.h.h.h.h.h.h.h.h.h.g.>.C = $ * * O @ # $ * h -.e.d.g.h.f.h.h.h.h.h.h.h.h.h.h.h.h.h.h.h.h.h.h.h.h.h.h.h.h.h.",
"h.h.h.h.h.h.h.h.h.h.h.h.h.g.h.d.g.g.g.g.g.f.,.S O O O * $ # $ O * k *.f.h.h.h.d.h.h.h.h.h.h.h.h.h.h.h.h.h.h.h.h.h.h.h.h.h.h.h.h.",
"h.h.h.h.h.h.h.h.h.h.h.h.h.h.d.d.a.w.,.5.h.a.f.:.V * . @ @ $ @ O * * h *.g.h.p.a.h.f.h.h.h.h.h.h.h.h.h.h.h.h.h.h.h.h.h.h.h.h.h.h.",
"h.h.h.h.h.h.h.h.h.h.h.h.h.f.h.g.t.' s ^ 5.d.d.p.,.B = @ @ $ O O @ * * h $.f.f.h.h.h.h.h.h.h.h.h.h.h.h.h.h.h.h.h.h.h.h.h.h.h.h.h.",
"h.h.h.h.h.h.h.h.h.h.h.h.h.h.f.p.` q * 1 ^ 3.s.p.d.,.J - . . O O .   O * v *.p.h.h.h.g.h.h.h.h.h.h.h.h.h.h.h.h.h.h.h.h.h.h.h.h.h.",
"h.h.h.h.h.h.h.h.h.h.h.h.h.g.p.[ 9 . * r 6 ( q.h.p.h.<.K @ . O $ O O O r r M *.d.p.h.d.g.g.h.h.h.h.h.h.h.h.h.h.h.h.h.h.h.h.h.h.h.",
"h.h.h.h.h.h.h.h.h.h.h.h.f.e.] 0 # X * r # 2 ( 5.d.f.f.,.G O O @ $ O O $ r @ h &.e.p.d.h.h.h.f.h.h.h.h.h.h.h.h.h.h.h.h.h.h.h.h.h.",
"h.h.h.h.h.h.h.h.h.h.h.h.d. .w O * O O X @   6 ^ 4.g.p.p.<.K ; $ O O O O $ * * v $.e.d.h.g.h.h.h.h.h.h.h.h.h.h.h.h.h.h.h.h.h.h.h.",
"h.h.h.h.h.h.h.h.h.g.f.f.h...8 + r r O X @ $ O 1 Q 8.p.h.h.<.L @   o * O . $ * * g +.d.f.f.h.d.h.f.h.h.h.h.h.h.h.h.h.h.h.h.h.h.h.",
"h.h.h.h.h.h.h.d.h.p.u.a.d.8.` 8 O $ $ O O $ $ O 5 R 4.h.f.d.,.K & . O O $ . O O * f %.h.f.h.p.h.h.h.f.h.h.h.h.h.h.h.h.h.h.h.h.h.",
"h.h.h.h.h.d.h.g.h.q.8.u.g.a.p.[ q O $ O * r O O + : R 4.p.p.p.1.L * O O O O O O * O f #.p.f.h.g.h.h.h.h.h.h.h.h.h.h.h.h.h.h.h.h.",
"h.h.h.h.h.d.h.g.5._ I ,.u.u.u.p.[ 9 O O O $ O O @ $ > R 3.u.a.d.4.P : . . O O O O * * z +.h.h.h.h.g.g.h.h.h.h.h.h.h.h.h.h.h.h.h.",
"h.h.h.h.h.p.g.w._ 0 & S :.d.u.u.p.[ w @ $ . O $ r $ $ : R 6.d.d.g.4.I @ . X $ $ O O $ r f O.d.d.p.g.g.h.f.h.h.h.h.h.h.h.h.h.h.h.",
"h.h.h.h.h.f.8.( 0 $ O - S -.d.a.g.p.] e o @ O $ O O O $ 1 ^ 4.e.f.a.1.I : O O r O @ $ r * a O.p.p.d.h.h.h.f.h.h.h.h.h.h.h.h.h.h.",
"h.h.h.h.h.q._ 4 $ O + O - S ;.h.a.f.d.{ w O $ O O @ . O $ 1 W 4.g.p.d.3.T r $ O O O O O * O x @.e.h.h.h.h.h.h.h.h.h.h.h.h.h.h.h.",
"h.h.g.f.t./ 7 * $ O + $ O * Z ;.g.a.a.p.{ w & $ O @ @ * $ X = Y 3.f.f.g.1.T r O o O O O $ $ r s ..h.h.h.h.p.h.h.h.f.h.h.h.h.h.h.",
"h.h.h.d.t.P & @ $ $ * @ O O - Z ,.u.a.h.8...e O r O O $ $ $ O 3 U 1.h.u.g.3.I = # @ O $ O O O & s X.f.f.a.p.h.h.h.h.h.h.h.h.h.h.",
"h.g.h.p.f.;.k O . O r * X X @ * A ;.g.g.g.f.{ q @ $ $ O $ $ $ * e *.d.p.y.p.2.L ; @ . @ O O O   O a X.p.h.h.h.h.h.h.h.f.h.h.h.h.",
"h.h.h.h.f.h.;.C & $ @ $   O X @ r Z -.g.u.g.d...u + + $ O o X > ! 8.g.d.p.a.h.4.T : # . O O @ $ * O p ..p.h.d.h.h.g.h.h.h.h.h.h.",
"h.h.h.h.f.f.p.>.D * . . r * O X O * N ;.p.9.u.f.| u o   $ . < E 8.g.u.9.d.h.a.f.8.Y = . O O $ o $ r $ p X.d.p.d.d.g.h.h.f.h.h.h.",
"h.h.h.h.h.h.g.u.,.B * O o $ $ O X @ * N *.p.u.u.p...t * $ > ! 4.p.p.9.O._ <.d.h.a.1.R : O O $ O @ $ * O p ..p.p.d.h.h.f.h.h.h.h.",
"h.h.h.h.h.a.d.h.p.;.S = # @ * r @ X O & k ;.h.g.d.e...p 6 ~ e.a.w.p.X.s ; L ,.g.t.g.8.Q ; # O $ O O $ * * t o.8.h.h.h.h.h.h.h.h.",
"h.h.h.h.h.d.d.h.f.d.;.S - . O r @ O $ * * N *.g.a.h.p.@. .6.d.p.r...g O @ * L >.h.f.h.5.E - O o O $ . $ r * p ..p.a.p.d.h.h.h.h.",
"h.h.h.h.h.h.h.h.h.g.e.&.D & O O O O O O O * m ;.g.u.a.h.g.a.u.a.O.s O O O $ ; J 1.a.p.p.4.E > $ O @ $ O @ $ * t | 9.p.h.h.h.h.h.",
"h.h.h.h.h.h.h.f.h.g.9.d.,.D * @ O O O O X X * m -.g.u.a.e.h.a.o.s O $ @ @ $ $ - K ,.d.d.p.6.~ > O . O O O . O O y | 9.h.a.h.h.h.",
"h.h.h.h.h.h.h.d.d.a.h.g.p.,.J ; . . O r O X . O m *.p.e.9.p.8.P + # @ $ O O O O - L >.a.d.d.8.Q : # . O O O O     t | q.h.h.h.h.",
"h.h.h.h.h.g.g.d.d.h.h.f.f.p.>.D * O $ * * O X . * g $.g.g.f.h.X.s r r r & + $ $ $ = J <.p.p.h.5.R : . @ O O O r   O i -.u.h.h.h.",
"h.h.h.h.h.d.g.g.d.h.h.f.f.g.u.,.D : O .   * O X O * n &.a.f.g.p.o.f * $ + @ $ $ O   & K :.p.a.p.6.^ 0 O $ O O $ @ = V <.g.h.h.h.",
"h.h.h.h.h.h.h.g.g.h.h.h.g.h.f.p.<.K & # O * r O X O O v *.e.9.9.f.X.f O @ # $ + X O $ * J ,.a.a.p.w.! = $ O @ O & N -.f.h.h.h.h.",
"h.h.h.h.h.h.h.h.h.h.h.h.h.h.f.h.h.:.K = O O $ @ @ $ O * g +.a.u.f.p.O.d = $ $ + O O $ $ = G ,.d.f.d.5.! : @ $ & S ;.g.g.h.h.h.h.",
"h.h.h.h.h.h.h.h.h.h.h.h.h.f.f.h.s.q.:.K : O . O O + O @ * n #.g.a.h.a.O.x * O $ O O O O + % G <.d.a.g.8.^ 1 * F =.d.f.f.f.h.h.h.",
"h.h.h.h.h.h.h.h.h.h.h.h.h.h.h.d.9.g.d.<.D - @ @ O @ $ X X O b #.h.g.u.g.#.z @ O $ O O O O O * D ,.g.u.y.8.) I ;.9.h.f.h.g.h.h.h.",
"h.h.h.h.h.h.h.h.h.h.h.h.g.h.d.d.h.g.h.h.<.P : $ @ O   O X O * b O.a.p.u.g.O.s o @ $ $ O * $ $ ; k :.f.a.d.s.8.d.h.f.f.g.u.h.h.h.",
"h.h.h.h.h.h.h.h.h.h.h.h.h.g.d.d.h.f.f.f.a.3.P - O O * r $ X X O c O.w.9.u.f.&.d o O $ O * O O * @ B ,.h.h.g.h.h.f.g.g.h.f.h.h.h.",
"h.h.h.h.h.h.h.h.h.h.h.h.h.g.g.h.h.f.h.f.g.h.4.P : O O O * O . O * f o.f.g.g.p.+.h + $ $ O O O O $ * K 3.g.a.f.h.h.g.g.f.f.h.h.h.",
"h.h.h.h.h.h.h.h.h.h.h.h.h.h.g.g.h.h.d.a.f.f.h.<.U = # O * $ O O * & c O.f.p.f.p.@.h * $ @ O . # r 3 P 4.g.f.f.h.d.h.h.h.h.h.h.h.",
"h.h.h.h.h.h.h.h.h.h.h.h.h.h.h.h.h.h.h.h.h.f.h.e.:.Y = O O @ O O $ @ * s o.g.u.h.d.&.n O @ O O @ : P ,.g.g.h.h.h.h.h.h.h.h.h.h.h.",
"h.h.h.h.h.h.h.h.h.h.h.h.h.h.h.h.h.h.h.h.h.f.g.g.9.,.Y : $ . $ $ O X X O c @.d.u.9.d.&.h @ @ * 3 G :.a.h.f.h.h.h.h.h.h.h.h.h.h.h.",
"h.h.h.h.h.h.h.h.h.h.h.h.h.h.h.h.h.h.h.h.h.f.h.9.d.h.<.Y ; O @ O O @ . X $ c O.d.a.p.u.%.n * r Y 1.9.u.h.f.h.h.h.h.h.h.h.h.h.h.h.",
"h.h.h.h.h.h.h.h.h.h.h.h.h.h.h.h.h.h.h.g.h.d.d.h.f.h.d.<.Y 6 O O r * O . @ O z ..a.y.p.g.-.D L <.d.h.g.h.g.h.h.h.h.h.h.h.h.h.h.h.",
"h.h.h.h.h.h.h.h.h.h.h.h.h.h.h.h.h.h.h.h.g.d.h.f.f.f.f.g.3.T > O O * r $ X O O t o.e.a.f.f.3.2.u.h.f.f.g.g.h.h.h.h.h.h.h.h.h.h.h.",
"h.h.h.h.h.h.h.h.h.h.h.h.h.h.h.h.h.h.h.h.h.g.h.h.h.h.h.g.p.4.Y : . X O * O @ O * p ..p.h.p.a.u.g.h.f.h.g.g.g.h.h.h.h.h.h.h.h.h.h.",
"h.h.h.h.h.h.h.h.h.h.h.h.h.h.h.h.h.h.h.d.h.g.g.h.h.h.g.f.f.h.4.E : O O r r O X . $ c X.d.a.h.f.h.h.h.h.h.h.h.h.h.h.h.h.h.h.h.h.h.",
"h.h.h.h.h.h.h.h.h.h.h.h.h.h.h.h.h.h.h.h.h.h.h.h.h.h.d.f.f.h.s.1.R < o @ O O O r # % / h.g.f.h.h.h.h.h.h.h.h.h.h.h.h.h.h.h.h.h.h.",
"h.h.h.h.h.h.h.h.h.h.h.h.h.h.h.h.h.h.h.h.h.h.h.h.h.h.h.h.f.g.s.9.<.Y 1 O # @ O r : H ,.h.h.h.h.h.h.h.h.h.h.h.h.h.h.h.h.h.h.h.h.h.",
"h.h.h.h.h.h.h.h.h.h.h.h.h.h.h.h.h.h.h.h.h.h.h.h.h.h.h.f.h.d.s.u.h.<.R 1 @ @ O ; Y ,.g.h.g.g.h.h.h.h.h.h.h.h.h.h.h.h.h.h.h.h.h.h.",
"h.h.h.h.h.h.h.h.h.h.h.h.h.h.h.h.h.h.h.h.h.h.h.h.h.h.g.g.d.d.h.h.h.h.8.Q > # 1 Y ,.h.f.g.u.a.f.h.h.h.h.h.h.h.h.h.h.h.h.h.h.h.h.h.",
"h.h.h.h.h.h.h.h.h.h.h.h.h.h.h.h.h.h.h.h.h.h.h.h.h.h.h.g.d.h.a.h.f.d.u.t.Q w I 3.h.f.h.h.g.f.f.h.h.h.h.h.h.h.h.h.h.h.h.h.h.h.h.h.",
"h.h.h.h.h.h.h.h.h.h.h.h.h.h.h.h.h.h.h.h.h.h.h.h.h.h.h.g.g.h.h.s.d.d.d.a.5.#.4.h.h.f.g.g.p.f.g.h.h.h.h.h.h.h.h.h.h.h.h.h.h.h.h.h.",
"h.h.h.h.h.h.h.h.h.h.h.h.h.h.h.h.h.h.h.h.h.h.h.h.h.h.h.h.h.h.h.h.h.h.d.d.h.h.h.h.h.h.g.h.h.f.h.h.h.h.h.h.h.h.h.h.h.h.h.h.h.h.h.h.",
"h.h.h.h.h.h.h.h.h.h.h.h.h.h.h.h.h.h.h.h.h.h.h.h.h.h.h.h.h.h.h.h.h.h.h.h.h.h.h.h.h.h.h.h.h.h.h.h.h.h.h.h.h.h.h.h.h.h.h.h.h.h.h.h.",
"h.h.h.h.h.h.h.h.h.h.h.h.h.h.h.h.h.h.h.h.h.h.h.h.h.h.h.h.h.h.h.h.h.h.h.h.h.h.h.h.h.h.h.h.h.h.h.h.h.h.h.h.h.h.h.h.h.h.h.h.h.h.h.h.",
"h.h.h.h.h.h.h.h.h.h.h.h.h.h.h.h.h.h.h.h.h.h.h.h.h.h.h.h.h.h.h.h.h.h.h.h.h.h.h.h.h.h.h.h.h.h.h.h.h.h.h.h.h.h.h.h.h.h.h.h.h.h.h.h.",
"h.h.h.h.h.h.h.h.h.h.h.h.h.h.h.h.h.h.h.h.h.h.h.h.h.h.h.h.h.h.h.h.h.h.h.h.h.h.h.h.h.h.h.h.h.h.h.h.h.h.h.h.h.h.h.h.h.h.h.h.h.h.h.h.",
"h.h.h.h.h.h.h.h.h.h.h.h.h.h.h.h.h.h.h.h.h.h.h.h.h.h.h.h.h.h.h.h.h.h.h.h.h.h.h.h.h.h.h.h.h.h.h.h.h.h.h.h.h.h.h.h.h.h.h.h.h.h.h.h."
};
